<?xml version="1.0" encoding="utf-8" standalone="no"?>
<!DOCTYPE svg PUBLIC "-//W3C//DTD SVG 1.1//EN"
  "http://www.w3.org/Graphics/SVG/1.1/DTD/svg11.dtd">
<svg xmlns:xlink="http://www.w3.org/1999/xlink" width="395.31pt" height="303.669812pt" viewBox="0 0 395.31 303.669812" xmlns="http://www.w3.org/2000/svg" version="1.1">
 <metadata>
  <rdf:RDF xmlns:dc="http://purl.org/dc/elements/1.1/" xmlns:cc="http://creativecommons.org/ns#" xmlns:rdf="http://www.w3.org/1999/02/22-rdf-syntax-ns#">
   <cc:Work>
    <dc:type rdf:resource="http://purl.org/dc/dcmitype/StillImage"/>
    <dc:date>2023-05-29T22:34:41.348592</dc:date>
    <dc:format>image/svg+xml</dc:format>
    <dc:creator>
     <cc:Agent>
      <dc:title>Matplotlib v3.7.1, https://matplotlib.org/</dc:title>
     </cc:Agent>
    </dc:creator>
   </cc:Work>
  </rdf:RDF>
 </metadata>
 <defs>
  <style type="text/css">*{stroke-linejoin: round; stroke-linecap: butt}</style>
 </defs>
 <g id="figure_1">
  <g id="patch_1">
   <path d="M 0 303.669812 
L 395.31 303.669812 
L 395.31 0 
L 0 0 
z
" style="fill: #ffffff"/>
  </g>
  <g id="axes_1">
   <g id="patch_2">
    <path d="M 53.31 260.710125 
L 388.11 260.710125 
L 388.11 22.318125 
L 53.31 22.318125 
z
" style="fill: #ffffff"/>
   </g>
   <g id="matplotlib.axis_1">
    <g id="xtick_1">
     <g id="line2d_1">
      <path d="M 59.016818 260.710125 
L 59.016818 22.318125 
" clip-path="url(#p6bf4242288)" style="fill: none; stroke: #cccccc; stroke-linecap: round"/>
     </g>
     <g id="text_1">
      <!-- 0.0 -->
      <g style="fill: #262626" transform="translate(50.270099 278.568406) scale(0.11 -0.11)">
       <defs>
        <path id="DejaVuSans-30" d="M 2034 4250 
Q 1547 4250 1301 3770 
Q 1056 3291 1056 2328 
Q 1056 1369 1301 889 
Q 1547 409 2034 409 
Q 2525 409 2770 889 
Q 3016 1369 3016 2328 
Q 3016 3291 2770 3770 
Q 2525 4250 2034 4250 
z
M 2034 4750 
Q 2819 4750 3233 4129 
Q 3647 3509 3647 2328 
Q 3647 1150 3233 529 
Q 2819 -91 2034 -91 
Q 1250 -91 836 529 
Q 422 1150 422 2328 
Q 422 3509 836 4129 
Q 1250 4750 2034 4750 
z
" transform="scale(0.015625)"/>
        <path id="DejaVuSans-2e" d="M 684 794 
L 1344 794 
L 1344 0 
L 684 0 
L 684 794 
z
" transform="scale(0.015625)"/>
       </defs>
       <use xlink:href="#DejaVuSans-30"/>
       <use xlink:href="#DejaVuSans-2e" x="63.623047"/>
       <use xlink:href="#DejaVuSans-30" x="95.410156"/>
      </g>
     </g>
    </g>
    <g id="xtick_2">
     <g id="line2d_2">
      <path d="M 122.425909 260.710125 
L 122.425909 22.318125 
" clip-path="url(#p6bf4242288)" style="fill: none; stroke: #cccccc; stroke-linecap: round"/>
     </g>
     <g id="text_2">
      <!-- 0.2 -->
      <g style="fill: #262626" transform="translate(113.67919 278.568406) scale(0.11 -0.11)">
       <defs>
        <path id="DejaVuSans-32" d="M 1228 531 
L 3431 531 
L 3431 0 
L 469 0 
L 469 531 
Q 828 903 1448 1529 
Q 2069 2156 2228 2338 
Q 2531 2678 2651 2914 
Q 2772 3150 2772 3378 
Q 2772 3750 2511 3984 
Q 2250 4219 1831 4219 
Q 1534 4219 1204 4116 
Q 875 4013 500 3803 
L 500 4441 
Q 881 4594 1212 4672 
Q 1544 4750 1819 4750 
Q 2544 4750 2975 4387 
Q 3406 4025 3406 3419 
Q 3406 3131 3298 2873 
Q 3191 2616 2906 2266 
Q 2828 2175 2409 1742 
Q 1991 1309 1228 531 
z
" transform="scale(0.015625)"/>
       </defs>
       <use xlink:href="#DejaVuSans-30"/>
       <use xlink:href="#DejaVuSans-2e" x="63.623047"/>
       <use xlink:href="#DejaVuSans-32" x="95.410156"/>
      </g>
     </g>
    </g>
    <g id="xtick_3">
     <g id="line2d_3">
      <path d="M 185.835 260.710125 
L 185.835 22.318125 
" clip-path="url(#p6bf4242288)" style="fill: none; stroke: #cccccc; stroke-linecap: round"/>
     </g>
     <g id="text_3">
      <!-- 0.4 -->
      <g style="fill: #262626" transform="translate(177.088281 278.568406) scale(0.11 -0.11)">
       <defs>
        <path id="DejaVuSans-34" d="M 2419 4116 
L 825 1625 
L 2419 1625 
L 2419 4116 
z
M 2253 4666 
L 3047 4666 
L 3047 1625 
L 3713 1625 
L 3713 1100 
L 3047 1100 
L 3047 0 
L 2419 0 
L 2419 1100 
L 313 1100 
L 313 1709 
L 2253 4666 
z
" transform="scale(0.015625)"/>
       </defs>
       <use xlink:href="#DejaVuSans-30"/>
       <use xlink:href="#DejaVuSans-2e" x="63.623047"/>
       <use xlink:href="#DejaVuSans-34" x="95.410156"/>
      </g>
     </g>
    </g>
    <g id="xtick_4">
     <g id="line2d_4">
      <path d="M 249.244091 260.710125 
L 249.244091 22.318125 
" clip-path="url(#p6bf4242288)" style="fill: none; stroke: #cccccc; stroke-linecap: round"/>
     </g>
     <g id="text_4">
      <!-- 0.6 -->
      <g style="fill: #262626" transform="translate(240.497372 278.568406) scale(0.11 -0.11)">
       <defs>
        <path id="DejaVuSans-36" d="M 2113 2584 
Q 1688 2584 1439 2293 
Q 1191 2003 1191 1497 
Q 1191 994 1439 701 
Q 1688 409 2113 409 
Q 2538 409 2786 701 
Q 3034 994 3034 1497 
Q 3034 2003 2786 2293 
Q 2538 2584 2113 2584 
z
M 3366 4563 
L 3366 3988 
Q 3128 4100 2886 4159 
Q 2644 4219 2406 4219 
Q 1781 4219 1451 3797 
Q 1122 3375 1075 2522 
Q 1259 2794 1537 2939 
Q 1816 3084 2150 3084 
Q 2853 3084 3261 2657 
Q 3669 2231 3669 1497 
Q 3669 778 3244 343 
Q 2819 -91 2113 -91 
Q 1303 -91 875 529 
Q 447 1150 447 2328 
Q 447 3434 972 4092 
Q 1497 4750 2381 4750 
Q 2619 4750 2861 4703 
Q 3103 4656 3366 4563 
z
" transform="scale(0.015625)"/>
       </defs>
       <use xlink:href="#DejaVuSans-30"/>
       <use xlink:href="#DejaVuSans-2e" x="63.623047"/>
       <use xlink:href="#DejaVuSans-36" x="95.410156"/>
      </g>
     </g>
    </g>
    <g id="xtick_5">
     <g id="line2d_5">
      <path d="M 312.653182 260.710125 
L 312.653182 22.318125 
" clip-path="url(#p6bf4242288)" style="fill: none; stroke: #cccccc; stroke-linecap: round"/>
     </g>
     <g id="text_5">
      <!-- 0.8 -->
      <g style="fill: #262626" transform="translate(303.906463 278.568406) scale(0.11 -0.11)">
       <defs>
        <path id="DejaVuSans-38" d="M 2034 2216 
Q 1584 2216 1326 1975 
Q 1069 1734 1069 1313 
Q 1069 891 1326 650 
Q 1584 409 2034 409 
Q 2484 409 2743 651 
Q 3003 894 3003 1313 
Q 3003 1734 2745 1975 
Q 2488 2216 2034 2216 
z
M 1403 2484 
Q 997 2584 770 2862 
Q 544 3141 544 3541 
Q 544 4100 942 4425 
Q 1341 4750 2034 4750 
Q 2731 4750 3128 4425 
Q 3525 4100 3525 3541 
Q 3525 3141 3298 2862 
Q 3072 2584 2669 2484 
Q 3125 2378 3379 2068 
Q 3634 1759 3634 1313 
Q 3634 634 3220 271 
Q 2806 -91 2034 -91 
Q 1263 -91 848 271 
Q 434 634 434 1313 
Q 434 1759 690 2068 
Q 947 2378 1403 2484 
z
M 1172 3481 
Q 1172 3119 1398 2916 
Q 1625 2713 2034 2713 
Q 2441 2713 2670 2916 
Q 2900 3119 2900 3481 
Q 2900 3844 2670 4047 
Q 2441 4250 2034 4250 
Q 1625 4250 1398 4047 
Q 1172 3844 1172 3481 
z
" transform="scale(0.015625)"/>
       </defs>
       <use xlink:href="#DejaVuSans-30"/>
       <use xlink:href="#DejaVuSans-2e" x="63.623047"/>
       <use xlink:href="#DejaVuSans-38" x="95.410156"/>
      </g>
     </g>
    </g>
    <g id="xtick_6">
     <g id="line2d_6">
      <path d="M 376.062273 260.710125 
L 376.062273 22.318125 
" clip-path="url(#p6bf4242288)" style="fill: none; stroke: #cccccc; stroke-linecap: round"/>
     </g>
     <g id="text_6">
      <!-- 1.0 -->
      <g style="fill: #262626" transform="translate(367.315554 278.568406) scale(0.11 -0.11)">
       <defs>
        <path id="DejaVuSans-31" d="M 794 531 
L 1825 531 
L 1825 4091 
L 703 3866 
L 703 4441 
L 1819 4666 
L 2450 4666 
L 2450 531 
L 3481 531 
L 3481 0 
L 794 0 
L 794 531 
z
" transform="scale(0.015625)"/>
       </defs>
       <use xlink:href="#DejaVuSans-31"/>
       <use xlink:href="#DejaVuSans-2e" x="63.623047"/>
       <use xlink:href="#DejaVuSans-30" x="95.410156"/>
      </g>
     </g>
    </g>
    <g id="text_7">
     <!-- # episodes -->
     <g style="fill: #262626" transform="translate(187.184063 293.974187) scale(0.12 -0.12)">
      <defs>
       <path id="DejaVuSans-23" d="M 3272 2816 
L 2363 2816 
L 2100 1772 
L 3016 1772 
L 3272 2816 
z
M 2803 4594 
L 2478 3297 
L 3391 3297 
L 3719 4594 
L 4219 4594 
L 3897 3297 
L 4872 3297 
L 4872 2816 
L 3775 2816 
L 3519 1772 
L 4513 1772 
L 4513 1294 
L 3397 1294 
L 3072 0 
L 2572 0 
L 2894 1294 
L 1978 1294 
L 1656 0 
L 1153 0 
L 1478 1294 
L 494 1294 
L 494 1772 
L 1594 1772 
L 1856 2816 
L 850 2816 
L 850 3297 
L 1978 3297 
L 2297 4594 
L 2803 4594 
z
" transform="scale(0.015625)"/>
       <path id="DejaVuSans-20" transform="scale(0.015625)"/>
       <path id="DejaVuSans-65" d="M 3597 1894 
L 3597 1613 
L 953 1613 
Q 991 1019 1311 708 
Q 1631 397 2203 397 
Q 2534 397 2845 478 
Q 3156 559 3463 722 
L 3463 178 
Q 3153 47 2828 -22 
Q 2503 -91 2169 -91 
Q 1331 -91 842 396 
Q 353 884 353 1716 
Q 353 2575 817 3079 
Q 1281 3584 2069 3584 
Q 2775 3584 3186 3129 
Q 3597 2675 3597 1894 
z
M 3022 2063 
Q 3016 2534 2758 2815 
Q 2500 3097 2075 3097 
Q 1594 3097 1305 2825 
Q 1016 2553 972 2059 
L 3022 2063 
z
" transform="scale(0.015625)"/>
       <path id="DejaVuSans-70" d="M 1159 525 
L 1159 -1331 
L 581 -1331 
L 581 3500 
L 1159 3500 
L 1159 2969 
Q 1341 3281 1617 3432 
Q 1894 3584 2278 3584 
Q 2916 3584 3314 3078 
Q 3713 2572 3713 1747 
Q 3713 922 3314 415 
Q 2916 -91 2278 -91 
Q 1894 -91 1617 61 
Q 1341 213 1159 525 
z
M 3116 1747 
Q 3116 2381 2855 2742 
Q 2594 3103 2138 3103 
Q 1681 3103 1420 2742 
Q 1159 2381 1159 1747 
Q 1159 1113 1420 752 
Q 1681 391 2138 391 
Q 2594 391 2855 752 
Q 3116 1113 3116 1747 
z
" transform="scale(0.015625)"/>
       <path id="DejaVuSans-69" d="M 603 3500 
L 1178 3500 
L 1178 0 
L 603 0 
L 603 3500 
z
M 603 4863 
L 1178 4863 
L 1178 4134 
L 603 4134 
L 603 4863 
z
" transform="scale(0.015625)"/>
       <path id="DejaVuSans-73" d="M 2834 3397 
L 2834 2853 
Q 2591 2978 2328 3040 
Q 2066 3103 1784 3103 
Q 1356 3103 1142 2972 
Q 928 2841 928 2578 
Q 928 2378 1081 2264 
Q 1234 2150 1697 2047 
L 1894 2003 
Q 2506 1872 2764 1633 
Q 3022 1394 3022 966 
Q 3022 478 2636 193 
Q 2250 -91 1575 -91 
Q 1294 -91 989 -36 
Q 684 19 347 128 
L 347 722 
Q 666 556 975 473 
Q 1284 391 1588 391 
Q 1994 391 2212 530 
Q 2431 669 2431 922 
Q 2431 1156 2273 1281 
Q 2116 1406 1581 1522 
L 1381 1569 
Q 847 1681 609 1914 
Q 372 2147 372 2553 
Q 372 3047 722 3315 
Q 1072 3584 1716 3584 
Q 2034 3584 2315 3537 
Q 2597 3491 2834 3397 
z
" transform="scale(0.015625)"/>
       <path id="DejaVuSans-6f" d="M 1959 3097 
Q 1497 3097 1228 2736 
Q 959 2375 959 1747 
Q 959 1119 1226 758 
Q 1494 397 1959 397 
Q 2419 397 2687 759 
Q 2956 1122 2956 1747 
Q 2956 2369 2687 2733 
Q 2419 3097 1959 3097 
z
M 1959 3584 
Q 2709 3584 3137 3096 
Q 3566 2609 3566 1747 
Q 3566 888 3137 398 
Q 2709 -91 1959 -91 
Q 1206 -91 779 398 
Q 353 888 353 1747 
Q 353 2609 779 3096 
Q 1206 3584 1959 3584 
z
" transform="scale(0.015625)"/>
       <path id="DejaVuSans-64" d="M 2906 2969 
L 2906 4863 
L 3481 4863 
L 3481 0 
L 2906 0 
L 2906 525 
Q 2725 213 2448 61 
Q 2172 -91 1784 -91 
Q 1150 -91 751 415 
Q 353 922 353 1747 
Q 353 2572 751 3078 
Q 1150 3584 1784 3584 
Q 2172 3584 2448 3432 
Q 2725 3281 2906 2969 
z
M 947 1747 
Q 947 1113 1208 752 
Q 1469 391 1925 391 
Q 2381 391 2643 752 
Q 2906 1113 2906 1747 
Q 2906 2381 2643 2742 
Q 2381 3103 1925 3103 
Q 1469 3103 1208 2742 
Q 947 2381 947 1747 
z
" transform="scale(0.015625)"/>
      </defs>
      <use xlink:href="#DejaVuSans-23"/>
      <use xlink:href="#DejaVuSans-20" x="83.789062"/>
      <use xlink:href="#DejaVuSans-65" x="115.576172"/>
      <use xlink:href="#DejaVuSans-70" x="177.099609"/>
      <use xlink:href="#DejaVuSans-69" x="240.576172"/>
      <use xlink:href="#DejaVuSans-73" x="268.359375"/>
      <use xlink:href="#DejaVuSans-6f" x="320.458984"/>
      <use xlink:href="#DejaVuSans-64" x="381.640625"/>
      <use xlink:href="#DejaVuSans-65" x="445.117188"/>
      <use xlink:href="#DejaVuSans-73" x="506.640625"/>
     </g>
    </g>
    <g id="text_8">
     <!-- 1e6 -->
     <g style="fill: #262626" transform="translate(367.344063 292.214344) scale(0.11 -0.11)">
      <use xlink:href="#DejaVuSans-31"/>
      <use xlink:href="#DejaVuSans-65" x="63.623047"/>
      <use xlink:href="#DejaVuSans-36" x="125.146484"/>
     </g>
    </g>
   </g>
   <g id="matplotlib.axis_2">
    <g id="ytick_1">
     <g id="line2d_7">
      <path d="M 53.31 250.164894 
L 388.11 250.164894 
" clip-path="url(#p6bf4242288)" style="fill: none; stroke: #cccccc; stroke-linecap: round"/>
     </g>
     <g id="text_9">
      <!-- 0 -->
      <g style="fill: #262626" transform="translate(36.81125 254.344035) scale(0.11 -0.11)">
       <use xlink:href="#DejaVuSans-30"/>
      </g>
     </g>
    </g>
    <g id="ytick_2">
     <g id="line2d_8">
      <path d="M 53.31 205.28951 
L 388.11 205.28951 
" clip-path="url(#p6bf4242288)" style="fill: none; stroke: #cccccc; stroke-linecap: round"/>
     </g>
     <g id="text_10">
      <!-- 20 -->
      <g style="fill: #262626" transform="translate(29.8125 209.46865) scale(0.11 -0.11)">
       <use xlink:href="#DejaVuSans-32"/>
       <use xlink:href="#DejaVuSans-30" x="63.623047"/>
      </g>
     </g>
    </g>
    <g id="ytick_3">
     <g id="line2d_9">
      <path d="M 53.31 160.414125 
L 388.11 160.414125 
" clip-path="url(#p6bf4242288)" style="fill: none; stroke: #cccccc; stroke-linecap: round"/>
     </g>
     <g id="text_11">
      <!-- 40 -->
      <g style="fill: #262626" transform="translate(29.8125 164.593266) scale(0.11 -0.11)">
       <use xlink:href="#DejaVuSans-34"/>
       <use xlink:href="#DejaVuSans-30" x="63.623047"/>
      </g>
     </g>
    </g>
    <g id="ytick_4">
     <g id="line2d_10">
      <path d="M 53.31 115.53874 
L 388.11 115.53874 
" clip-path="url(#p6bf4242288)" style="fill: none; stroke: #cccccc; stroke-linecap: round"/>
     </g>
     <g id="text_12">
      <!-- 60 -->
      <g style="fill: #262626" transform="translate(29.8125 119.717881) scale(0.11 -0.11)">
       <use xlink:href="#DejaVuSans-36"/>
       <use xlink:href="#DejaVuSans-30" x="63.623047"/>
      </g>
     </g>
    </g>
    <g id="ytick_5">
     <g id="line2d_11">
      <path d="M 53.31 70.663356 
L 388.11 70.663356 
" clip-path="url(#p6bf4242288)" style="fill: none; stroke: #cccccc; stroke-linecap: round"/>
     </g>
     <g id="text_13">
      <!-- 80 -->
      <g style="fill: #262626" transform="translate(29.8125 74.842496) scale(0.11 -0.11)">
       <use xlink:href="#DejaVuSans-38"/>
       <use xlink:href="#DejaVuSans-30" x="63.623047"/>
      </g>
     </g>
    </g>
    <g id="ytick_6">
     <g id="line2d_12">
      <path d="M 53.31 25.787971 
L 388.11 25.787971 
" clip-path="url(#p6bf4242288)" style="fill: none; stroke: #cccccc; stroke-linecap: round"/>
     </g>
     <g id="text_14">
      <!-- 100 -->
      <g style="fill: #262626" transform="translate(22.81375 29.967112) scale(0.11 -0.11)">
       <use xlink:href="#DejaVuSans-31"/>
       <use xlink:href="#DejaVuSans-30" x="63.623047"/>
       <use xlink:href="#DejaVuSans-30" x="127.246094"/>
      </g>
     </g>
    </g>
    <g id="text_15">
     <!-- win rate, % -->
     <g style="fill: #262626" transform="translate(16.318125 175.499437) rotate(-90) scale(0.12 -0.12)">
      <defs>
       <path id="DejaVuSans-77" d="M 269 3500 
L 844 3500 
L 1563 769 
L 2278 3500 
L 2956 3500 
L 3675 769 
L 4391 3500 
L 4966 3500 
L 4050 0 
L 3372 0 
L 2619 2869 
L 1863 0 
L 1184 0 
L 269 3500 
z
" transform="scale(0.015625)"/>
       <path id="DejaVuSans-6e" d="M 3513 2113 
L 3513 0 
L 2938 0 
L 2938 2094 
Q 2938 2591 2744 2837 
Q 2550 3084 2163 3084 
Q 1697 3084 1428 2787 
Q 1159 2491 1159 1978 
L 1159 0 
L 581 0 
L 581 3500 
L 1159 3500 
L 1159 2956 
Q 1366 3272 1645 3428 
Q 1925 3584 2291 3584 
Q 2894 3584 3203 3211 
Q 3513 2838 3513 2113 
z
" transform="scale(0.015625)"/>
       <path id="DejaVuSans-72" d="M 2631 2963 
Q 2534 3019 2420 3045 
Q 2306 3072 2169 3072 
Q 1681 3072 1420 2755 
Q 1159 2438 1159 1844 
L 1159 0 
L 581 0 
L 581 3500 
L 1159 3500 
L 1159 2956 
Q 1341 3275 1631 3429 
Q 1922 3584 2338 3584 
Q 2397 3584 2469 3576 
Q 2541 3569 2628 3553 
L 2631 2963 
z
" transform="scale(0.015625)"/>
       <path id="DejaVuSans-61" d="M 2194 1759 
Q 1497 1759 1228 1600 
Q 959 1441 959 1056 
Q 959 750 1161 570 
Q 1363 391 1709 391 
Q 2188 391 2477 730 
Q 2766 1069 2766 1631 
L 2766 1759 
L 2194 1759 
z
M 3341 1997 
L 3341 0 
L 2766 0 
L 2766 531 
Q 2569 213 2275 61 
Q 1981 -91 1556 -91 
Q 1019 -91 701 211 
Q 384 513 384 1019 
Q 384 1609 779 1909 
Q 1175 2209 1959 2209 
L 2766 2209 
L 2766 2266 
Q 2766 2663 2505 2880 
Q 2244 3097 1772 3097 
Q 1472 3097 1187 3025 
Q 903 2953 641 2809 
L 641 3341 
Q 956 3463 1253 3523 
Q 1550 3584 1831 3584 
Q 2591 3584 2966 3190 
Q 3341 2797 3341 1997 
z
" transform="scale(0.015625)"/>
       <path id="DejaVuSans-74" d="M 1172 4494 
L 1172 3500 
L 2356 3500 
L 2356 3053 
L 1172 3053 
L 1172 1153 
Q 1172 725 1289 603 
Q 1406 481 1766 481 
L 2356 481 
L 2356 0 
L 1766 0 
Q 1100 0 847 248 
Q 594 497 594 1153 
L 594 3053 
L 172 3053 
L 172 3500 
L 594 3500 
L 594 4494 
L 1172 4494 
z
" transform="scale(0.015625)"/>
       <path id="DejaVuSans-2c" d="M 750 794 
L 1409 794 
L 1409 256 
L 897 -744 
L 494 -744 
L 750 256 
L 750 794 
z
" transform="scale(0.015625)"/>
       <path id="DejaVuSans-25" d="M 4653 2053 
Q 4381 2053 4226 1822 
Q 4072 1591 4072 1178 
Q 4072 772 4226 539 
Q 4381 306 4653 306 
Q 4919 306 5073 539 
Q 5228 772 5228 1178 
Q 5228 1588 5073 1820 
Q 4919 2053 4653 2053 
z
M 4653 2450 
Q 5147 2450 5437 2106 
Q 5728 1763 5728 1178 
Q 5728 594 5436 251 
Q 5144 -91 4653 -91 
Q 4153 -91 3862 251 
Q 3572 594 3572 1178 
Q 3572 1766 3864 2108 
Q 4156 2450 4653 2450 
z
M 1428 4353 
Q 1159 4353 1004 4120 
Q 850 3888 850 3481 
Q 850 3069 1003 2837 
Q 1156 2606 1428 2606 
Q 1700 2606 1854 2837 
Q 2009 3069 2009 3481 
Q 2009 3884 1853 4118 
Q 1697 4353 1428 4353 
z
M 4250 4750 
L 4750 4750 
L 1831 -91 
L 1331 -91 
L 4250 4750 
z
M 1428 4750 
Q 1922 4750 2215 4408 
Q 2509 4066 2509 3481 
Q 2509 2891 2217 2550 
Q 1925 2209 1428 2209 
Q 931 2209 642 2551 
Q 353 2894 353 3481 
Q 353 4063 643 4406 
Q 934 4750 1428 4750 
z
" transform="scale(0.015625)"/>
      </defs>
      <use xlink:href="#DejaVuSans-77"/>
      <use xlink:href="#DejaVuSans-69" x="81.787109"/>
      <use xlink:href="#DejaVuSans-6e" x="109.570312"/>
      <use xlink:href="#DejaVuSans-20" x="172.949219"/>
      <use xlink:href="#DejaVuSans-72" x="204.736328"/>
      <use xlink:href="#DejaVuSans-61" x="245.849609"/>
      <use xlink:href="#DejaVuSans-74" x="307.128906"/>
      <use xlink:href="#DejaVuSans-65" x="346.337891"/>
      <use xlink:href="#DejaVuSans-2c" x="407.861328"/>
      <use xlink:href="#DejaVuSans-20" x="439.648438"/>
      <use xlink:href="#DejaVuSans-25" x="471.435547"/>
     </g>
    </g>
   </g>
   <g id="PolyCollection_1"/>
   <g id="PolyCollection_2"/>
   <g id="line2d_13">
    <path d="M 68.528182 248.032587 
L 78.039545 225.837202 
L 87.550909 140.932587 
L 97.062273 94.700279 
L 106.573636 86.55874 
L 116.085 84.620279 
L 125.596364 73.377202 
L 135.107727 62.134125 
L 144.619091 56.124894 
L 154.130455 60.777202 
L 163.641818 45.657202 
L 173.153182 50.600279 
L 182.664545 47.78951 
L 192.175909 49.04951 
L 201.687273 46.917202 
L 211.198636 44.397202 
L 220.71 42.74951 
L 230.221364 40.132587 
L 239.732727 39.551048 
L 249.244091 40.714125 
L 258.755455 41.101817 
L 268.266818 37.612587 
L 277.778182 36.740279 
L 287.289545 39.551048 
L 296.800909 39.260279 
L 306.312273 35.771048 
L 315.823636 40.22951 
L 325.335 34.704894 
L 334.846364 36.061817 
L 344.357727 35.577202 
L 353.869091 35.577202 
L 363.380455 36.15874 
L 372.891818 33.154125 
" clip-path="url(#p6bf4242288)" style="fill: none; stroke: #721f81; stroke-width: 1.5; stroke-linecap: round"/>
   </g>
   <g id="line2d_14">
    <path d="M 68.528182 249.874125 
L 78.039545 249.38951 
L 87.550909 249.292587 
L 97.062273 248.517202 
L 106.573636 248.226433 
L 116.085 248.517202 
L 125.596364 248.614125 
L 135.107727 246.57874 
L 144.619091 245.60951 
L 154.130455 246.481817 
L 163.641818 246.384894 
L 173.153182 244.543356 
L 182.664545 244.05874 
L 192.175909 243.574125 
L 201.687273 243.671048 
L 211.198636 242.79874 
L 220.71 240.084894 
L 230.221364 240.181817 
L 239.732727 236.78951 
L 249.244091 236.78951 
L 258.755455 235.335663 
L 268.266818 233.591048 
L 277.778182 230.877202 
L 287.289545 230.974125 
L 296.800909 228.841817 
L 306.312273 226.612587 
L 315.823636 226.031048 
L 325.335 225.15874 
L 334.846364 224.286433 
L 344.357727 219.731048 
L 353.869091 222.735663 
L 363.380455 223.89874 
L 372.891818 217.88951 
" clip-path="url(#p6bf4242288)" style="fill: none; stroke: #f1605d; stroke-width: 1.5; stroke-linecap: round"/>
   </g>
   <g id="line2d_15"/>
   <g id="line2d_16"/>
   <g id="patch_3">
    <path d="M 53.31 260.710125 
L 53.31 22.318125 
" style="fill: none; stroke: #cccccc; stroke-width: 1.25; stroke-linejoin: miter; stroke-linecap: square"/>
   </g>
   <g id="patch_4">
    <path d="M 388.11 260.710125 
L 388.11 22.318125 
" style="fill: none; stroke: #cccccc; stroke-width: 1.25; stroke-linejoin: miter; stroke-linecap: square"/>
   </g>
   <g id="patch_5">
    <path d="M 53.31 260.710125 
L 388.11 260.710125 
" style="fill: none; stroke: #cccccc; stroke-width: 1.25; stroke-linejoin: miter; stroke-linecap: square"/>
   </g>
   <g id="patch_6">
    <path d="M 53.31 22.318125 
L 388.11 22.318125 
" style="fill: none; stroke: #cccccc; stroke-width: 1.25; stroke-linejoin: miter; stroke-linecap: square"/>
   </g>
   <g id="text_16">
    <!-- Test quality during training -->
    <g style="fill: #262626" transform="translate(140.049375 16.318125) scale(0.12 -0.12)">
     <defs>
      <path id="DejaVuSans-54" d="M -19 4666 
L 3928 4666 
L 3928 4134 
L 2272 4134 
L 2272 0 
L 1638 0 
L 1638 4134 
L -19 4134 
L -19 4666 
z
" transform="scale(0.015625)"/>
      <path id="DejaVuSans-71" d="M 947 1747 
Q 947 1113 1208 752 
Q 1469 391 1925 391 
Q 2381 391 2643 752 
Q 2906 1113 2906 1747 
Q 2906 2381 2643 2742 
Q 2381 3103 1925 3103 
Q 1469 3103 1208 2742 
Q 947 2381 947 1747 
z
M 2906 525 
Q 2725 213 2448 61 
Q 2172 -91 1784 -91 
Q 1150 -91 751 415 
Q 353 922 353 1747 
Q 353 2572 751 3078 
Q 1150 3584 1784 3584 
Q 2172 3584 2448 3432 
Q 2725 3281 2906 2969 
L 2906 3500 
L 3481 3500 
L 3481 -1331 
L 2906 -1331 
L 2906 525 
z
" transform="scale(0.015625)"/>
      <path id="DejaVuSans-75" d="M 544 1381 
L 544 3500 
L 1119 3500 
L 1119 1403 
Q 1119 906 1312 657 
Q 1506 409 1894 409 
Q 2359 409 2629 706 
Q 2900 1003 2900 1516 
L 2900 3500 
L 3475 3500 
L 3475 0 
L 2900 0 
L 2900 538 
Q 2691 219 2414 64 
Q 2138 -91 1772 -91 
Q 1169 -91 856 284 
Q 544 659 544 1381 
z
M 1991 3584 
L 1991 3584 
z
" transform="scale(0.015625)"/>
      <path id="DejaVuSans-6c" d="M 603 4863 
L 1178 4863 
L 1178 0 
L 603 0 
L 603 4863 
z
" transform="scale(0.015625)"/>
      <path id="DejaVuSans-79" d="M 2059 -325 
Q 1816 -950 1584 -1140 
Q 1353 -1331 966 -1331 
L 506 -1331 
L 506 -850 
L 844 -850 
Q 1081 -850 1212 -737 
Q 1344 -625 1503 -206 
L 1606 56 
L 191 3500 
L 800 3500 
L 1894 763 
L 2988 3500 
L 3597 3500 
L 2059 -325 
z
" transform="scale(0.015625)"/>
      <path id="DejaVuSans-67" d="M 2906 1791 
Q 2906 2416 2648 2759 
Q 2391 3103 1925 3103 
Q 1463 3103 1205 2759 
Q 947 2416 947 1791 
Q 947 1169 1205 825 
Q 1463 481 1925 481 
Q 2391 481 2648 825 
Q 2906 1169 2906 1791 
z
M 3481 434 
Q 3481 -459 3084 -895 
Q 2688 -1331 1869 -1331 
Q 1566 -1331 1297 -1286 
Q 1028 -1241 775 -1147 
L 775 -588 
Q 1028 -725 1275 -790 
Q 1522 -856 1778 -856 
Q 2344 -856 2625 -561 
Q 2906 -266 2906 331 
L 2906 616 
Q 2728 306 2450 153 
Q 2172 0 1784 0 
Q 1141 0 747 490 
Q 353 981 353 1791 
Q 353 2603 747 3093 
Q 1141 3584 1784 3584 
Q 2172 3584 2450 3431 
Q 2728 3278 2906 2969 
L 2906 3500 
L 3481 3500 
L 3481 434 
z
" transform="scale(0.015625)"/>
     </defs>
     <use xlink:href="#DejaVuSans-54"/>
     <use xlink:href="#DejaVuSans-65" x="44.083984"/>
     <use xlink:href="#DejaVuSans-73" x="105.607422"/>
     <use xlink:href="#DejaVuSans-74" x="157.707031"/>
     <use xlink:href="#DejaVuSans-20" x="196.916016"/>
     <use xlink:href="#DejaVuSans-71" x="228.703125"/>
     <use xlink:href="#DejaVuSans-75" x="292.179688"/>
     <use xlink:href="#DejaVuSans-61" x="355.558594"/>
     <use xlink:href="#DejaVuSans-6c" x="416.837891"/>
     <use xlink:href="#DejaVuSans-69" x="444.621094"/>
     <use xlink:href="#DejaVuSans-74" x="472.404297"/>
     <use xlink:href="#DejaVuSans-79" x="511.613281"/>
     <use xlink:href="#DejaVuSans-20" x="570.792969"/>
     <use xlink:href="#DejaVuSans-64" x="602.580078"/>
     <use xlink:href="#DejaVuSans-75" x="666.056641"/>
     <use xlink:href="#DejaVuSans-72" x="729.435547"/>
     <use xlink:href="#DejaVuSans-69" x="770.548828"/>
     <use xlink:href="#DejaVuSans-6e" x="798.332031"/>
     <use xlink:href="#DejaVuSans-67" x="861.710938"/>
     <use xlink:href="#DejaVuSans-20" x="925.1875"/>
     <use xlink:href="#DejaVuSans-74" x="956.974609"/>
     <use xlink:href="#DejaVuSans-72" x="996.183594"/>
     <use xlink:href="#DejaVuSans-61" x="1037.296875"/>
     <use xlink:href="#DejaVuSans-69" x="1098.576172"/>
     <use xlink:href="#DejaVuSans-6e" x="1126.359375"/>
     <use xlink:href="#DejaVuSans-69" x="1189.738281"/>
     <use xlink:href="#DejaVuSans-6e" x="1217.521484"/>
     <use xlink:href="#DejaVuSans-67" x="1280.900391"/>
    </g>
   </g>
   <g id="legend_1">
    <g id="patch_7">
     <path d="M 270.843125 159.310062 
L 380.41 159.310062 
Q 382.61 159.310062 382.61 157.110062 
L 382.61 125.918187 
Q 382.61 123.718187 380.41 123.718187 
L 270.843125 123.718187 
Q 268.643125 123.718187 268.643125 125.918187 
L 268.643125 157.110062 
Q 268.643125 159.310062 270.843125 159.310062 
z
" style="fill: #ffffff; opacity: 0.8; stroke: #cccccc; stroke-linejoin: miter"/>
    </g>
    <g id="line2d_17">
     <path d="M 273.043125 132.626469 
L 284.043125 132.626469 
L 295.043125 132.626469 
" style="fill: none; stroke: #721f81; stroke-width: 1.5; stroke-linecap: round"/>
    </g>
    <g id="text_17">
     <!-- letter -->
     <g style="fill: #262626" transform="translate(303.843125 136.476469) scale(0.11 -0.11)">
      <use xlink:href="#DejaVuSans-6c"/>
      <use xlink:href="#DejaVuSans-65" x="27.783203"/>
      <use xlink:href="#DejaVuSans-74" x="89.306641"/>
      <use xlink:href="#DejaVuSans-74" x="128.515625"/>
      <use xlink:href="#DejaVuSans-65" x="167.724609"/>
      <use xlink:href="#DejaVuSans-72" x="229.248047"/>
     </g>
    </g>
    <g id="line2d_18">
     <path d="M 273.043125 148.772406 
L 284.043125 148.772406 
L 295.043125 148.772406 
" style="fill: none; stroke: #f1605d; stroke-width: 1.5; stroke-linecap: round"/>
    </g>
    <g id="text_18">
     <!-- pair of letters -->
     <g style="fill: #262626" transform="translate(303.843125 152.622406) scale(0.11 -0.11)">
      <defs>
       <path id="DejaVuSans-66" d="M 2375 4863 
L 2375 4384 
L 1825 4384 
Q 1516 4384 1395 4259 
Q 1275 4134 1275 3809 
L 1275 3500 
L 2222 3500 
L 2222 3053 
L 1275 3053 
L 1275 0 
L 697 0 
L 697 3053 
L 147 3053 
L 147 3500 
L 697 3500 
L 697 3744 
Q 697 4328 969 4595 
Q 1241 4863 1831 4863 
L 2375 4863 
z
" transform="scale(0.015625)"/>
      </defs>
      <use xlink:href="#DejaVuSans-70"/>
      <use xlink:href="#DejaVuSans-61" x="63.476562"/>
      <use xlink:href="#DejaVuSans-69" x="124.755859"/>
      <use xlink:href="#DejaVuSans-72" x="152.539062"/>
      <use xlink:href="#DejaVuSans-20" x="193.652344"/>
      <use xlink:href="#DejaVuSans-6f" x="225.439453"/>
      <use xlink:href="#DejaVuSans-66" x="286.621094"/>
      <use xlink:href="#DejaVuSans-20" x="321.826172"/>
      <use xlink:href="#DejaVuSans-6c" x="353.613281"/>
      <use xlink:href="#DejaVuSans-65" x="381.396484"/>
      <use xlink:href="#DejaVuSans-74" x="442.919922"/>
      <use xlink:href="#DejaVuSans-74" x="482.128906"/>
      <use xlink:href="#DejaVuSans-65" x="521.337891"/>
      <use xlink:href="#DejaVuSans-72" x="582.861328"/>
      <use xlink:href="#DejaVuSans-73" x="623.974609"/>
     </g>
    </g>
   </g>
  </g>
 </g>
 <defs>
  <clipPath id="p6bf4242288">
   <rect x="53.31" y="22.318125" width="334.8" height="238.392"/>
  </clipPath>
 </defs>
</svg>
