<?xml version="1.0" encoding="utf-8" standalone="no"?>
<!DOCTYPE svg PUBLIC "-//W3C//DTD SVG 1.1//EN"
  "http://www.w3.org/Graphics/SVG/1.1/DTD/svg11.dtd">
<svg xmlns:xlink="http://www.w3.org/1999/xlink" width="635.321033pt" height="295.617812pt" viewBox="0 0 635.321033 295.617812" xmlns="http://www.w3.org/2000/svg" version="1.1">
 <metadata>
  <rdf:RDF xmlns:dc="http://purl.org/dc/elements/1.1/" xmlns:cc="http://creativecommons.org/ns#" xmlns:rdf="http://www.w3.org/1999/02/22-rdf-syntax-ns#">
   <cc:Work>
    <dc:type rdf:resource="http://purl.org/dc/dcmitype/StillImage"/>
    <dc:date>2023-05-29T22:33:31.573986</dc:date>
    <dc:format>image/svg+xml</dc:format>
    <dc:creator>
     <cc:Agent>
      <dc:title>Matplotlib v3.7.1, https://matplotlib.org/</dc:title>
     </cc:Agent>
    </dc:creator>
   </cc:Work>
  </rdf:RDF>
 </metadata>
 <defs>
  <style type="text/css">*{stroke-linejoin: round; stroke-linecap: butt}</style>
 </defs>
 <g id="figure_1">
  <g id="patch_1">
   <path d="M 0 295.617812 
L 635.321033 295.617812 
L 635.321033 0 
L 0 0 
z
" style="fill: #ffffff"/>
  </g>
  <g id="axes_1">
   <g id="patch_2">
    <path d="M 53.31 252.658125 
L 312.230517 252.658125 
L 312.230517 22.318125 
L 53.31 22.318125 
z
" style="fill: #ffffff"/>
   </g>
   <g id="matplotlib.axis_1">
    <g id="xtick_1">
     <g id="line2d_1">
      <path d="M 85.742633 252.658125 
L 85.742633 22.318125 
" clip-path="url(#pae3f9b1b0e)" style="fill: none; stroke: #cccccc; stroke-linecap: round"/>
     </g>
     <g id="text_1">
      <!-- 0.2 -->
      <g style="fill: #262626" transform="translate(76.995914 270.516406) scale(0.11 -0.11)">
       <defs>
        <path id="DejaVuSans-30" d="M 2034 4250 
Q 1547 4250 1301 3770 
Q 1056 3291 1056 2328 
Q 1056 1369 1301 889 
Q 1547 409 2034 409 
Q 2525 409 2770 889 
Q 3016 1369 3016 2328 
Q 3016 3291 2770 3770 
Q 2525 4250 2034 4250 
z
M 2034 4750 
Q 2819 4750 3233 4129 
Q 3647 3509 3647 2328 
Q 3647 1150 3233 529 
Q 2819 -91 2034 -91 
Q 1250 -91 836 529 
Q 422 1150 422 2328 
Q 422 3509 836 4129 
Q 1250 4750 2034 4750 
z
" transform="scale(0.015625)"/>
        <path id="DejaVuSans-2e" d="M 684 794 
L 1344 794 
L 1344 0 
L 684 0 
L 684 794 
z
" transform="scale(0.015625)"/>
        <path id="DejaVuSans-32" d="M 1228 531 
L 3431 531 
L 3431 0 
L 469 0 
L 469 531 
Q 828 903 1448 1529 
Q 2069 2156 2228 2338 
Q 2531 2678 2651 2914 
Q 2772 3150 2772 3378 
Q 2772 3750 2511 3984 
Q 2250 4219 1831 4219 
Q 1534 4219 1204 4116 
Q 875 4013 500 3803 
L 500 4441 
Q 881 4594 1212 4672 
Q 1544 4750 1819 4750 
Q 2544 4750 2975 4387 
Q 3406 4025 3406 3419 
Q 3406 3131 3298 2873 
Q 3191 2616 2906 2266 
Q 2828 2175 2409 1742 
Q 1991 1309 1228 531 
z
" transform="scale(0.015625)"/>
       </defs>
       <use xlink:href="#DejaVuSans-30"/>
       <use xlink:href="#DejaVuSans-2e" x="63.623047"/>
       <use xlink:href="#DejaVuSans-32" x="95.410156"/>
      </g>
     </g>
    </g>
    <g id="xtick_2">
     <g id="line2d_2">
      <path d="M 139.79702 252.658125 
L 139.79702 22.318125 
" clip-path="url(#pae3f9b1b0e)" style="fill: none; stroke: #cccccc; stroke-linecap: round"/>
     </g>
     <g id="text_2">
      <!-- 0.4 -->
      <g style="fill: #262626" transform="translate(131.050301 270.516406) scale(0.11 -0.11)">
       <defs>
        <path id="DejaVuSans-34" d="M 2419 4116 
L 825 1625 
L 2419 1625 
L 2419 4116 
z
M 2253 4666 
L 3047 4666 
L 3047 1625 
L 3713 1625 
L 3713 1100 
L 3047 1100 
L 3047 0 
L 2419 0 
L 2419 1100 
L 313 1100 
L 313 1709 
L 2253 4666 
z
" transform="scale(0.015625)"/>
       </defs>
       <use xlink:href="#DejaVuSans-30"/>
       <use xlink:href="#DejaVuSans-2e" x="63.623047"/>
       <use xlink:href="#DejaVuSans-34" x="95.410156"/>
      </g>
     </g>
    </g>
    <g id="xtick_3">
     <g id="line2d_3">
      <path d="M 193.851408 252.658125 
L 193.851408 22.318125 
" clip-path="url(#pae3f9b1b0e)" style="fill: none; stroke: #cccccc; stroke-linecap: round"/>
     </g>
     <g id="text_3">
      <!-- 0.6 -->
      <g style="fill: #262626" transform="translate(185.104689 270.516406) scale(0.11 -0.11)">
       <defs>
        <path id="DejaVuSans-36" d="M 2113 2584 
Q 1688 2584 1439 2293 
Q 1191 2003 1191 1497 
Q 1191 994 1439 701 
Q 1688 409 2113 409 
Q 2538 409 2786 701 
Q 3034 994 3034 1497 
Q 3034 2003 2786 2293 
Q 2538 2584 2113 2584 
z
M 3366 4563 
L 3366 3988 
Q 3128 4100 2886 4159 
Q 2644 4219 2406 4219 
Q 1781 4219 1451 3797 
Q 1122 3375 1075 2522 
Q 1259 2794 1537 2939 
Q 1816 3084 2150 3084 
Q 2853 3084 3261 2657 
Q 3669 2231 3669 1497 
Q 3669 778 3244 343 
Q 2819 -91 2113 -91 
Q 1303 -91 875 529 
Q 447 1150 447 2328 
Q 447 3434 972 4092 
Q 1497 4750 2381 4750 
Q 2619 4750 2861 4703 
Q 3103 4656 3366 4563 
z
" transform="scale(0.015625)"/>
       </defs>
       <use xlink:href="#DejaVuSans-30"/>
       <use xlink:href="#DejaVuSans-2e" x="63.623047"/>
       <use xlink:href="#DejaVuSans-36" x="95.410156"/>
      </g>
     </g>
    </g>
    <g id="xtick_4">
     <g id="line2d_4">
      <path d="M 247.905795 252.658125 
L 247.905795 22.318125 
" clip-path="url(#pae3f9b1b0e)" style="fill: none; stroke: #cccccc; stroke-linecap: round"/>
     </g>
     <g id="text_4">
      <!-- 0.8 -->
      <g style="fill: #262626" transform="translate(239.159077 270.516406) scale(0.11 -0.11)">
       <defs>
        <path id="DejaVuSans-38" d="M 2034 2216 
Q 1584 2216 1326 1975 
Q 1069 1734 1069 1313 
Q 1069 891 1326 650 
Q 1584 409 2034 409 
Q 2484 409 2743 651 
Q 3003 894 3003 1313 
Q 3003 1734 2745 1975 
Q 2488 2216 2034 2216 
z
M 1403 2484 
Q 997 2584 770 2862 
Q 544 3141 544 3541 
Q 544 4100 942 4425 
Q 1341 4750 2034 4750 
Q 2731 4750 3128 4425 
Q 3525 4100 3525 3541 
Q 3525 3141 3298 2862 
Q 3072 2584 2669 2484 
Q 3125 2378 3379 2068 
Q 3634 1759 3634 1313 
Q 3634 634 3220 271 
Q 2806 -91 2034 -91 
Q 1263 -91 848 271 
Q 434 634 434 1313 
Q 434 1759 690 2068 
Q 947 2378 1403 2484 
z
M 1172 3481 
Q 1172 3119 1398 2916 
Q 1625 2713 2034 2713 
Q 2441 2713 2670 2916 
Q 2900 3119 2900 3481 
Q 2900 3844 2670 4047 
Q 2441 4250 2034 4250 
Q 1625 4250 1398 4047 
Q 1172 3844 1172 3481 
z
" transform="scale(0.015625)"/>
       </defs>
       <use xlink:href="#DejaVuSans-30"/>
       <use xlink:href="#DejaVuSans-2e" x="63.623047"/>
       <use xlink:href="#DejaVuSans-38" x="95.410156"/>
      </g>
     </g>
    </g>
    <g id="xtick_5">
     <g id="line2d_5">
      <path d="M 301.960183 252.658125 
L 301.960183 22.318125 
" clip-path="url(#pae3f9b1b0e)" style="fill: none; stroke: #cccccc; stroke-linecap: round"/>
     </g>
     <g id="text_5">
      <!-- 1.0 -->
      <g style="fill: #262626" transform="translate(293.213464 270.516406) scale(0.11 -0.11)">
       <defs>
        <path id="DejaVuSans-31" d="M 794 531 
L 1825 531 
L 1825 4091 
L 703 3866 
L 703 4441 
L 1819 4666 
L 2450 4666 
L 2450 531 
L 3481 531 
L 3481 0 
L 794 0 
L 794 531 
z
" transform="scale(0.015625)"/>
       </defs>
       <use xlink:href="#DejaVuSans-31"/>
       <use xlink:href="#DejaVuSans-2e" x="63.623047"/>
       <use xlink:href="#DejaVuSans-30" x="95.410156"/>
      </g>
     </g>
    </g>
    <g id="text_6">
     <!-- # episodes -->
     <g style="fill: #262626" transform="translate(149.244321 285.922187) scale(0.12 -0.12)">
      <defs>
       <path id="DejaVuSans-23" d="M 3272 2816 
L 2363 2816 
L 2100 1772 
L 3016 1772 
L 3272 2816 
z
M 2803 4594 
L 2478 3297 
L 3391 3297 
L 3719 4594 
L 4219 4594 
L 3897 3297 
L 4872 3297 
L 4872 2816 
L 3775 2816 
L 3519 1772 
L 4513 1772 
L 4513 1294 
L 3397 1294 
L 3072 0 
L 2572 0 
L 2894 1294 
L 1978 1294 
L 1656 0 
L 1153 0 
L 1478 1294 
L 494 1294 
L 494 1772 
L 1594 1772 
L 1856 2816 
L 850 2816 
L 850 3297 
L 1978 3297 
L 2297 4594 
L 2803 4594 
z
" transform="scale(0.015625)"/>
       <path id="DejaVuSans-20" transform="scale(0.015625)"/>
       <path id="DejaVuSans-65" d="M 3597 1894 
L 3597 1613 
L 953 1613 
Q 991 1019 1311 708 
Q 1631 397 2203 397 
Q 2534 397 2845 478 
Q 3156 559 3463 722 
L 3463 178 
Q 3153 47 2828 -22 
Q 2503 -91 2169 -91 
Q 1331 -91 842 396 
Q 353 884 353 1716 
Q 353 2575 817 3079 
Q 1281 3584 2069 3584 
Q 2775 3584 3186 3129 
Q 3597 2675 3597 1894 
z
M 3022 2063 
Q 3016 2534 2758 2815 
Q 2500 3097 2075 3097 
Q 1594 3097 1305 2825 
Q 1016 2553 972 2059 
L 3022 2063 
z
" transform="scale(0.015625)"/>
       <path id="DejaVuSans-70" d="M 1159 525 
L 1159 -1331 
L 581 -1331 
L 581 3500 
L 1159 3500 
L 1159 2969 
Q 1341 3281 1617 3432 
Q 1894 3584 2278 3584 
Q 2916 3584 3314 3078 
Q 3713 2572 3713 1747 
Q 3713 922 3314 415 
Q 2916 -91 2278 -91 
Q 1894 -91 1617 61 
Q 1341 213 1159 525 
z
M 3116 1747 
Q 3116 2381 2855 2742 
Q 2594 3103 2138 3103 
Q 1681 3103 1420 2742 
Q 1159 2381 1159 1747 
Q 1159 1113 1420 752 
Q 1681 391 2138 391 
Q 2594 391 2855 752 
Q 3116 1113 3116 1747 
z
" transform="scale(0.015625)"/>
       <path id="DejaVuSans-69" d="M 603 3500 
L 1178 3500 
L 1178 0 
L 603 0 
L 603 3500 
z
M 603 4863 
L 1178 4863 
L 1178 4134 
L 603 4134 
L 603 4863 
z
" transform="scale(0.015625)"/>
       <path id="DejaVuSans-73" d="M 2834 3397 
L 2834 2853 
Q 2591 2978 2328 3040 
Q 2066 3103 1784 3103 
Q 1356 3103 1142 2972 
Q 928 2841 928 2578 
Q 928 2378 1081 2264 
Q 1234 2150 1697 2047 
L 1894 2003 
Q 2506 1872 2764 1633 
Q 3022 1394 3022 966 
Q 3022 478 2636 193 
Q 2250 -91 1575 -91 
Q 1294 -91 989 -36 
Q 684 19 347 128 
L 347 722 
Q 666 556 975 473 
Q 1284 391 1588 391 
Q 1994 391 2212 530 
Q 2431 669 2431 922 
Q 2431 1156 2273 1281 
Q 2116 1406 1581 1522 
L 1381 1569 
Q 847 1681 609 1914 
Q 372 2147 372 2553 
Q 372 3047 722 3315 
Q 1072 3584 1716 3584 
Q 2034 3584 2315 3537 
Q 2597 3491 2834 3397 
z
" transform="scale(0.015625)"/>
       <path id="DejaVuSans-6f" d="M 1959 3097 
Q 1497 3097 1228 2736 
Q 959 2375 959 1747 
Q 959 1119 1226 758 
Q 1494 397 1959 397 
Q 2419 397 2687 759 
Q 2956 1122 2956 1747 
Q 2956 2369 2687 2733 
Q 2419 3097 1959 3097 
z
M 1959 3584 
Q 2709 3584 3137 3096 
Q 3566 2609 3566 1747 
Q 3566 888 3137 398 
Q 2709 -91 1959 -91 
Q 1206 -91 779 398 
Q 353 888 353 1747 
Q 353 2609 779 3096 
Q 1206 3584 1959 3584 
z
" transform="scale(0.015625)"/>
       <path id="DejaVuSans-64" d="M 2906 2969 
L 2906 4863 
L 3481 4863 
L 3481 0 
L 2906 0 
L 2906 525 
Q 2725 213 2448 61 
Q 2172 -91 1784 -91 
Q 1150 -91 751 415 
Q 353 922 353 1747 
Q 353 2572 751 3078 
Q 1150 3584 1784 3584 
Q 2172 3584 2448 3432 
Q 2725 3281 2906 2969 
z
M 947 1747 
Q 947 1113 1208 752 
Q 1469 391 1925 391 
Q 2381 391 2643 752 
Q 2906 1113 2906 1747 
Q 2906 2381 2643 2742 
Q 2381 3103 1925 3103 
Q 1469 3103 1208 2742 
Q 947 2381 947 1747 
z
" transform="scale(0.015625)"/>
      </defs>
      <use xlink:href="#DejaVuSans-23"/>
      <use xlink:href="#DejaVuSans-20" x="83.789062"/>
      <use xlink:href="#DejaVuSans-65" x="115.576172"/>
      <use xlink:href="#DejaVuSans-70" x="177.099609"/>
      <use xlink:href="#DejaVuSans-69" x="240.576172"/>
      <use xlink:href="#DejaVuSans-73" x="268.359375"/>
      <use xlink:href="#DejaVuSans-6f" x="320.458984"/>
      <use xlink:href="#DejaVuSans-64" x="381.640625"/>
      <use xlink:href="#DejaVuSans-65" x="445.117188"/>
      <use xlink:href="#DejaVuSans-73" x="506.640625"/>
     </g>
    </g>
    <g id="text_7">
     <!-- 1e6 -->
     <g style="fill: #262626" transform="translate(291.464579 284.162344) scale(0.11 -0.11)">
      <use xlink:href="#DejaVuSans-31"/>
      <use xlink:href="#DejaVuSans-65" x="63.623047"/>
      <use xlink:href="#DejaVuSans-36" x="125.146484"/>
     </g>
    </g>
   </g>
   <g id="matplotlib.axis_2">
    <g id="ytick_1">
     <g id="line2d_6">
      <path d="M 53.31 252.658125 
L 312.230517 252.658125 
" clip-path="url(#pae3f9b1b0e)" style="fill: none; stroke: #cccccc; stroke-linecap: round"/>
     </g>
     <g id="text_8">
      <!-- 60 -->
      <g style="fill: #262626" transform="translate(29.8125 256.837266) scale(0.11 -0.11)">
       <use xlink:href="#DejaVuSans-36"/>
       <use xlink:href="#DejaVuSans-30" x="63.623047"/>
      </g>
     </g>
    </g>
    <g id="ytick_2">
     <g id="line2d_7">
      <path d="M 53.31 223.865625 
L 312.230517 223.865625 
" clip-path="url(#pae3f9b1b0e)" style="fill: none; stroke: #cccccc; stroke-linecap: round"/>
     </g>
     <g id="text_9">
      <!-- 65 -->
      <g style="fill: #262626" transform="translate(29.8125 228.044766) scale(0.11 -0.11)">
       <defs>
        <path id="DejaVuSans-35" d="M 691 4666 
L 3169 4666 
L 3169 4134 
L 1269 4134 
L 1269 2991 
Q 1406 3038 1543 3061 
Q 1681 3084 1819 3084 
Q 2600 3084 3056 2656 
Q 3513 2228 3513 1497 
Q 3513 744 3044 326 
Q 2575 -91 1722 -91 
Q 1428 -91 1123 -41 
Q 819 9 494 109 
L 494 744 
Q 775 591 1075 516 
Q 1375 441 1709 441 
Q 2250 441 2565 725 
Q 2881 1009 2881 1497 
Q 2881 1984 2565 2268 
Q 2250 2553 1709 2553 
Q 1456 2553 1204 2497 
Q 953 2441 691 2322 
L 691 4666 
z
" transform="scale(0.015625)"/>
       </defs>
       <use xlink:href="#DejaVuSans-36"/>
       <use xlink:href="#DejaVuSans-35" x="63.623047"/>
      </g>
     </g>
    </g>
    <g id="ytick_3">
     <g id="line2d_8">
      <path d="M 53.31 195.073125 
L 312.230517 195.073125 
" clip-path="url(#pae3f9b1b0e)" style="fill: none; stroke: #cccccc; stroke-linecap: round"/>
     </g>
     <g id="text_10">
      <!-- 70 -->
      <g style="fill: #262626" transform="translate(29.8125 199.252266) scale(0.11 -0.11)">
       <defs>
        <path id="DejaVuSans-37" d="M 525 4666 
L 3525 4666 
L 3525 4397 
L 1831 0 
L 1172 0 
L 2766 4134 
L 525 4134 
L 525 4666 
z
" transform="scale(0.015625)"/>
       </defs>
       <use xlink:href="#DejaVuSans-37"/>
       <use xlink:href="#DejaVuSans-30" x="63.623047"/>
      </g>
     </g>
    </g>
    <g id="ytick_4">
     <g id="line2d_9">
      <path d="M 53.31 166.280625 
L 312.230517 166.280625 
" clip-path="url(#pae3f9b1b0e)" style="fill: none; stroke: #cccccc; stroke-linecap: round"/>
     </g>
     <g id="text_11">
      <!-- 75 -->
      <g style="fill: #262626" transform="translate(29.8125 170.459766) scale(0.11 -0.11)">
       <use xlink:href="#DejaVuSans-37"/>
       <use xlink:href="#DejaVuSans-35" x="63.623047"/>
      </g>
     </g>
    </g>
    <g id="ytick_5">
     <g id="line2d_10">
      <path d="M 53.31 137.488125 
L 312.230517 137.488125 
" clip-path="url(#pae3f9b1b0e)" style="fill: none; stroke: #cccccc; stroke-linecap: round"/>
     </g>
     <g id="text_12">
      <!-- 80 -->
      <g style="fill: #262626" transform="translate(29.8125 141.667266) scale(0.11 -0.11)">
       <use xlink:href="#DejaVuSans-38"/>
       <use xlink:href="#DejaVuSans-30" x="63.623047"/>
      </g>
     </g>
    </g>
    <g id="ytick_6">
     <g id="line2d_11">
      <path d="M 53.31 108.695625 
L 312.230517 108.695625 
" clip-path="url(#pae3f9b1b0e)" style="fill: none; stroke: #cccccc; stroke-linecap: round"/>
     </g>
     <g id="text_13">
      <!-- 85 -->
      <g style="fill: #262626" transform="translate(29.8125 112.874766) scale(0.11 -0.11)">
       <use xlink:href="#DejaVuSans-38"/>
       <use xlink:href="#DejaVuSans-35" x="63.623047"/>
      </g>
     </g>
    </g>
    <g id="ytick_7">
     <g id="line2d_12">
      <path d="M 53.31 79.903125 
L 312.230517 79.903125 
" clip-path="url(#pae3f9b1b0e)" style="fill: none; stroke: #cccccc; stroke-linecap: round"/>
     </g>
     <g id="text_14">
      <!-- 90 -->
      <g style="fill: #262626" transform="translate(29.8125 84.082266) scale(0.11 -0.11)">
       <defs>
        <path id="DejaVuSans-39" d="M 703 97 
L 703 672 
Q 941 559 1184 500 
Q 1428 441 1663 441 
Q 2288 441 2617 861 
Q 2947 1281 2994 2138 
Q 2813 1869 2534 1725 
Q 2256 1581 1919 1581 
Q 1219 1581 811 2004 
Q 403 2428 403 3163 
Q 403 3881 828 4315 
Q 1253 4750 1959 4750 
Q 2769 4750 3195 4129 
Q 3622 3509 3622 2328 
Q 3622 1225 3098 567 
Q 2575 -91 1691 -91 
Q 1453 -91 1209 -44 
Q 966 3 703 97 
z
M 1959 2075 
Q 2384 2075 2632 2365 
Q 2881 2656 2881 3163 
Q 2881 3666 2632 3958 
Q 2384 4250 1959 4250 
Q 1534 4250 1286 3958 
Q 1038 3666 1038 3163 
Q 1038 2656 1286 2365 
Q 1534 2075 1959 2075 
z
" transform="scale(0.015625)"/>
       </defs>
       <use xlink:href="#DejaVuSans-39"/>
       <use xlink:href="#DejaVuSans-30" x="63.623047"/>
      </g>
     </g>
    </g>
    <g id="ytick_8">
     <g id="line2d_13">
      <path d="M 53.31 51.110625 
L 312.230517 51.110625 
" clip-path="url(#pae3f9b1b0e)" style="fill: none; stroke: #cccccc; stroke-linecap: round"/>
     </g>
     <g id="text_15">
      <!-- 95 -->
      <g style="fill: #262626" transform="translate(29.8125 55.289766) scale(0.11 -0.11)">
       <use xlink:href="#DejaVuSans-39"/>
       <use xlink:href="#DejaVuSans-35" x="63.623047"/>
      </g>
     </g>
    </g>
    <g id="ytick_9">
     <g id="line2d_14">
      <path d="M 53.31 22.318125 
L 312.230517 22.318125 
" clip-path="url(#pae3f9b1b0e)" style="fill: none; stroke: #cccccc; stroke-linecap: round"/>
     </g>
     <g id="text_16">
      <!-- 100 -->
      <g style="fill: #262626" transform="translate(22.81375 26.497266) scale(0.11 -0.11)">
       <use xlink:href="#DejaVuSans-31"/>
       <use xlink:href="#DejaVuSans-30" x="63.623047"/>
       <use xlink:href="#DejaVuSans-30" x="127.246094"/>
      </g>
     </g>
    </g>
    <g id="text_17">
     <!-- win rate, % -->
     <g style="fill: #262626" transform="translate(16.318125 171.473437) rotate(-90) scale(0.12 -0.12)">
      <defs>
       <path id="DejaVuSans-77" d="M 269 3500 
L 844 3500 
L 1563 769 
L 2278 3500 
L 2956 3500 
L 3675 769 
L 4391 3500 
L 4966 3500 
L 4050 0 
L 3372 0 
L 2619 2869 
L 1863 0 
L 1184 0 
L 269 3500 
z
" transform="scale(0.015625)"/>
       <path id="DejaVuSans-6e" d="M 3513 2113 
L 3513 0 
L 2938 0 
L 2938 2094 
Q 2938 2591 2744 2837 
Q 2550 3084 2163 3084 
Q 1697 3084 1428 2787 
Q 1159 2491 1159 1978 
L 1159 0 
L 581 0 
L 581 3500 
L 1159 3500 
L 1159 2956 
Q 1366 3272 1645 3428 
Q 1925 3584 2291 3584 
Q 2894 3584 3203 3211 
Q 3513 2838 3513 2113 
z
" transform="scale(0.015625)"/>
       <path id="DejaVuSans-72" d="M 2631 2963 
Q 2534 3019 2420 3045 
Q 2306 3072 2169 3072 
Q 1681 3072 1420 2755 
Q 1159 2438 1159 1844 
L 1159 0 
L 581 0 
L 581 3500 
L 1159 3500 
L 1159 2956 
Q 1341 3275 1631 3429 
Q 1922 3584 2338 3584 
Q 2397 3584 2469 3576 
Q 2541 3569 2628 3553 
L 2631 2963 
z
" transform="scale(0.015625)"/>
       <path id="DejaVuSans-61" d="M 2194 1759 
Q 1497 1759 1228 1600 
Q 959 1441 959 1056 
Q 959 750 1161 570 
Q 1363 391 1709 391 
Q 2188 391 2477 730 
Q 2766 1069 2766 1631 
L 2766 1759 
L 2194 1759 
z
M 3341 1997 
L 3341 0 
L 2766 0 
L 2766 531 
Q 2569 213 2275 61 
Q 1981 -91 1556 -91 
Q 1019 -91 701 211 
Q 384 513 384 1019 
Q 384 1609 779 1909 
Q 1175 2209 1959 2209 
L 2766 2209 
L 2766 2266 
Q 2766 2663 2505 2880 
Q 2244 3097 1772 3097 
Q 1472 3097 1187 3025 
Q 903 2953 641 2809 
L 641 3341 
Q 956 3463 1253 3523 
Q 1550 3584 1831 3584 
Q 2591 3584 2966 3190 
Q 3341 2797 3341 1997 
z
" transform="scale(0.015625)"/>
       <path id="DejaVuSans-74" d="M 1172 4494 
L 1172 3500 
L 2356 3500 
L 2356 3053 
L 1172 3053 
L 1172 1153 
Q 1172 725 1289 603 
Q 1406 481 1766 481 
L 2356 481 
L 2356 0 
L 1766 0 
Q 1100 0 847 248 
Q 594 497 594 1153 
L 594 3053 
L 172 3053 
L 172 3500 
L 594 3500 
L 594 4494 
L 1172 4494 
z
" transform="scale(0.015625)"/>
       <path id="DejaVuSans-2c" d="M 750 794 
L 1409 794 
L 1409 256 
L 897 -744 
L 494 -744 
L 750 256 
L 750 794 
z
" transform="scale(0.015625)"/>
       <path id="DejaVuSans-25" d="M 4653 2053 
Q 4381 2053 4226 1822 
Q 4072 1591 4072 1178 
Q 4072 772 4226 539 
Q 4381 306 4653 306 
Q 4919 306 5073 539 
Q 5228 772 5228 1178 
Q 5228 1588 5073 1820 
Q 4919 2053 4653 2053 
z
M 4653 2450 
Q 5147 2450 5437 2106 
Q 5728 1763 5728 1178 
Q 5728 594 5436 251 
Q 5144 -91 4653 -91 
Q 4153 -91 3862 251 
Q 3572 594 3572 1178 
Q 3572 1766 3864 2108 
Q 4156 2450 4653 2450 
z
M 1428 4353 
Q 1159 4353 1004 4120 
Q 850 3888 850 3481 
Q 850 3069 1003 2837 
Q 1156 2606 1428 2606 
Q 1700 2606 1854 2837 
Q 2009 3069 2009 3481 
Q 2009 3884 1853 4118 
Q 1697 4353 1428 4353 
z
M 4250 4750 
L 4750 4750 
L 1831 -91 
L 1331 -91 
L 4250 4750 
z
M 1428 4750 
Q 1922 4750 2215 4408 
Q 2509 4066 2509 3481 
Q 2509 2891 2217 2550 
Q 1925 2209 1428 2209 
Q 931 2209 642 2551 
Q 353 2894 353 3481 
Q 353 4063 643 4406 
Q 934 4750 1428 4750 
z
" transform="scale(0.015625)"/>
      </defs>
      <use xlink:href="#DejaVuSans-77"/>
      <use xlink:href="#DejaVuSans-69" x="81.787109"/>
      <use xlink:href="#DejaVuSans-6e" x="109.570312"/>
      <use xlink:href="#DejaVuSans-20" x="172.949219"/>
      <use xlink:href="#DejaVuSans-72" x="204.736328"/>
      <use xlink:href="#DejaVuSans-61" x="245.849609"/>
      <use xlink:href="#DejaVuSans-74" x="307.128906"/>
      <use xlink:href="#DejaVuSans-65" x="346.337891"/>
      <use xlink:href="#DejaVuSans-2c" x="407.861328"/>
      <use xlink:href="#DejaVuSans-20" x="439.648438"/>
      <use xlink:href="#DejaVuSans-25" x="471.435547"/>
     </g>
    </g>
   </g>
   <g id="line2d_15">
    <path d="M 79.729265 296.617812 
L 80.337194 288.01949 
L 88.445352 235.959703 
L 96.55351 207.719724 
L 104.661668 206.491899 
L 112.769826 182.426526 
L 120.877984 192.740257 
L 128.986143 136.996995 
L 137.094301 158.115588 
L 145.202459 150.748637 
L 153.310617 175.79627 
L 161.418775 104.582411 
L 169.526933 107.529191 
L 177.635091 107.774756 
L 185.74325 85.182773 
L 193.851408 90.830769 
L 201.959566 96.72433 
L 210.067724 79.043647 
L 218.175882 68.484351 
L 226.28404 74.377912 
L 234.392198 78.552517 
L 242.500357 76.587997 
L 250.608515 63.08192 
L 258.716673 67.502091 
L 266.824831 79.780342 
L 274.932989 55.960534 
L 283.041147 59.64401 
L 291.149305 74.377912 
L 299.257464 54.978274 
" clip-path="url(#pae3f9b1b0e)" style="fill: none; stroke: #fbb6bc; stroke-width: 1.5; stroke-linecap: round"/>
   </g>
   <g id="line2d_16">
    <path d="M 63.927957 296.617812 
L 64.120878 290.714299 
L 72.229036 213.600473 
L 80.337194 148.504386 
L 88.445352 124.969647 
L 96.55351 124.218538 
L 104.661668 100.18306 
L 112.769826 90.919386 
L 120.877984 104.439342 
L 128.986143 85.411255 
L 137.094301 79.402386 
L 145.202459 83.408299 
L 153.310617 72.892777 
L 161.418775 59.62319 
L 169.526933 55.366908 
L 177.635091 64.880951 
L 185.74325 60.123929 
L 193.851408 47.855821 
L 201.959566 50.609886 
L 210.067724 49.608408 
L 218.175882 51.611364 
L 226.28404 49.858777 
L 234.392198 55.617277 
L 242.500357 43.599538 
L 250.608515 47.605451 
L 258.716673 42.34769 
L 266.824831 44.851386 
L 274.932989 42.59806 
L 283.041147 45.602495 
L 291.149305 40.344734 
L 299.257464 38.341777 
" clip-path="url(#pae3f9b1b0e)" style="fill: none; stroke: #f883ab; stroke-width: 1.5; stroke-linecap: round"/>
   </g>
   <g id="line2d_17">
    <path d="M 60.173199 296.617812 
L 64.120878 150.965465 
L 72.229036 88.939069 
L 80.337194 90.725838 
L 88.445352 78.984215 
L 96.55351 77.452699 
L 104.661668 71.581888 
L 112.769826 61.627035 
L 120.877984 61.627035 
L 128.986143 49.374907 
L 137.094301 50.906423 
L 145.202459 45.290864 
L 153.310617 44.269854 
L 161.418775 39.675306 
L 169.526933 42.738338 
L 177.635091 47.843391 
L 185.74325 39.420053 
L 193.851408 41.717327 
L 201.959566 41.717327 
L 210.067724 37.122779 
L 218.175882 37.122779 
L 226.28404 37.633285 
L 234.392198 38.399043 
L 242.500357 37.122779 
L 250.608515 35.336011 
L 258.716673 40.185811 
L 266.824831 37.122779 
L 274.932989 41.462074 
L 283.041147 37.633285 
L 291.149305 33.804495 
L 299.257464 37.122779 
" clip-path="url(#pae3f9b1b0e)" style="fill: none; stroke: #e6479b; stroke-width: 1.5; stroke-linecap: round"/>
   </g>
   <g id="line2d_18">
    <path d="M 61.918991 296.617812 
L 64.120878 204.060667 
L 72.229036 82.069098 
L 80.337194 74.849189 
L 88.445352 60.40937 
L 96.55351 51.695687 
L 104.661668 48.459176 
L 112.769826 47.214364 
L 120.877984 45.969552 
L 128.986143 39.49653 
L 137.094301 41.239266 
L 145.202459 42.982003 
L 153.310617 39.994454 
L 161.418775 32.27662 
L 169.526933 41.488229 
L 177.635091 44.226815 
L 185.74325 34.26832 
L 193.851408 33.27247 
L 201.959566 31.280771 
L 210.067724 41.986154 
L 218.175882 40.492379 
L 226.28404 32.27662 
L 234.392198 31.031809 
L 242.500357 32.525583 
L 250.608515 32.525583 
L 258.716673 34.517282 
L 266.824831 31.031809 
L 274.932989 36.508981 
L 283.041147 30.782846 
L 291.149305 29.289072 
L 299.257464 32.774545 
" clip-path="url(#pae3f9b1b0e)" style="fill: none; stroke: #b90d84; stroke-width: 1.5; stroke-linecap: round"/>
   </g>
   <g id="line2d_19">
    <path d="M 62.770053 296.617812 
L 64.120878 240.553472 
L 72.229036 92.635613 
L 80.337194 63.001814 
L 88.445352 59.737074 
L 96.55351 69.531296 
L 104.661668 45.422442 
L 112.769826 44.417907 
L 120.877984 43.915639 
L 128.986143 44.166773 
L 137.094301 38.641828 
L 145.202459 36.381623 
L 153.310617 34.623685 
L 161.418775 36.632756 
L 169.526933 37.888426 
L 177.635091 33.368016 
L 185.74325 36.381623 
L 193.851408 36.381623 
L 201.959566 28.596472 
L 210.067724 36.632756 
L 218.175882 32.112347 
L 226.28404 32.112347 
L 234.392198 30.856677 
L 242.500357 32.865748 
L 250.608515 36.381623 
L 258.716673 34.623685 
L 266.824831 31.861213 
L 274.932989 33.116882 
L 283.041147 29.601008 
L 291.149305 29.349874 
L 299.257464 32.865748 
" clip-path="url(#pae3f9b1b0e)" style="fill: none; stroke: #7f0178; stroke-width: 1.5; stroke-linecap: round"/>
   </g>
   <g id="line2d_20">
    <path d="M 61.828725 296.617812 
L 64.120878 195.123727 
L 72.229036 77.474232 
L 80.337194 77.980252 
L 88.445352 75.450155 
L 96.55351 59.763556 
L 104.661668 47.872101 
L 112.769826 40.028802 
L 120.877984 43.570937 
L 128.986143 43.823947 
L 137.094301 41.54686 
L 145.202459 43.570937 
L 153.310617 41.799869 
L 161.418775 40.028802 
L 169.526933 41.54686 
L 177.635091 39.016763 
L 185.74325 34.968608 
L 193.851408 37.751715 
L 201.959566 38.510744 
L 210.067724 33.70356 
L 218.175882 29.655405 
L 226.28404 36.233657 
L 234.392198 33.197541 
L 242.500357 39.775792 
L 250.608515 28.390357 
L 258.716673 34.715599 
L 266.824831 29.908415 
L 274.932989 29.908415 
L 283.041147 34.209579 
L 291.149305 30.920454 
L 299.257464 30.667444 
" clip-path="url(#pae3f9b1b0e)" style="fill: none; stroke: #49006a; stroke-width: 1.5; stroke-linecap: round"/>
   </g>
   <g id="patch_3">
    <path d="M 53.31 252.658125 
L 53.31 22.318125 
" style="fill: none; stroke: #cccccc; stroke-width: 1.25; stroke-linejoin: miter; stroke-linecap: square"/>
   </g>
   <g id="patch_4">
    <path d="M 312.230517 252.658125 
L 312.230517 22.318125 
" style="fill: none; stroke: #cccccc; stroke-width: 1.25; stroke-linejoin: miter; stroke-linecap: square"/>
   </g>
   <g id="patch_5">
    <path d="M 53.31 252.658125 
L 312.230517 252.658125 
" style="fill: none; stroke: #cccccc; stroke-width: 1.25; stroke-linejoin: miter; stroke-linecap: square"/>
   </g>
   <g id="patch_6">
    <path d="M 53.31 22.318125 
L 312.230517 22.318125 
" style="fill: none; stroke: #cccccc; stroke-width: 1.25; stroke-linejoin: miter; stroke-linecap: square"/>
   </g>
   <g id="text_18">
    <!-- Test quality during training -->
    <g style="fill: #262626" transform="translate(102.109633 16.318125) scale(0.12 -0.12)">
     <defs>
      <path id="DejaVuSans-54" d="M -19 4666 
L 3928 4666 
L 3928 4134 
L 2272 4134 
L 2272 0 
L 1638 0 
L 1638 4134 
L -19 4134 
L -19 4666 
z
" transform="scale(0.015625)"/>
      <path id="DejaVuSans-71" d="M 947 1747 
Q 947 1113 1208 752 
Q 1469 391 1925 391 
Q 2381 391 2643 752 
Q 2906 1113 2906 1747 
Q 2906 2381 2643 2742 
Q 2381 3103 1925 3103 
Q 1469 3103 1208 2742 
Q 947 2381 947 1747 
z
M 2906 525 
Q 2725 213 2448 61 
Q 2172 -91 1784 -91 
Q 1150 -91 751 415 
Q 353 922 353 1747 
Q 353 2572 751 3078 
Q 1150 3584 1784 3584 
Q 2172 3584 2448 3432 
Q 2725 3281 2906 2969 
L 2906 3500 
L 3481 3500 
L 3481 -1331 
L 2906 -1331 
L 2906 525 
z
" transform="scale(0.015625)"/>
      <path id="DejaVuSans-75" d="M 544 1381 
L 544 3500 
L 1119 3500 
L 1119 1403 
Q 1119 906 1312 657 
Q 1506 409 1894 409 
Q 2359 409 2629 706 
Q 2900 1003 2900 1516 
L 2900 3500 
L 3475 3500 
L 3475 0 
L 2900 0 
L 2900 538 
Q 2691 219 2414 64 
Q 2138 -91 1772 -91 
Q 1169 -91 856 284 
Q 544 659 544 1381 
z
M 1991 3584 
L 1991 3584 
z
" transform="scale(0.015625)"/>
      <path id="DejaVuSans-6c" d="M 603 4863 
L 1178 4863 
L 1178 0 
L 603 0 
L 603 4863 
z
" transform="scale(0.015625)"/>
      <path id="DejaVuSans-79" d="M 2059 -325 
Q 1816 -950 1584 -1140 
Q 1353 -1331 966 -1331 
L 506 -1331 
L 506 -850 
L 844 -850 
Q 1081 -850 1212 -737 
Q 1344 -625 1503 -206 
L 1606 56 
L 191 3500 
L 800 3500 
L 1894 763 
L 2988 3500 
L 3597 3500 
L 2059 -325 
z
" transform="scale(0.015625)"/>
      <path id="DejaVuSans-67" d="M 2906 1791 
Q 2906 2416 2648 2759 
Q 2391 3103 1925 3103 
Q 1463 3103 1205 2759 
Q 947 2416 947 1791 
Q 947 1169 1205 825 
Q 1463 481 1925 481 
Q 2391 481 2648 825 
Q 2906 1169 2906 1791 
z
M 3481 434 
Q 3481 -459 3084 -895 
Q 2688 -1331 1869 -1331 
Q 1566 -1331 1297 -1286 
Q 1028 -1241 775 -1147 
L 775 -588 
Q 1028 -725 1275 -790 
Q 1522 -856 1778 -856 
Q 2344 -856 2625 -561 
Q 2906 -266 2906 331 
L 2906 616 
Q 2728 306 2450 153 
Q 2172 0 1784 0 
Q 1141 0 747 490 
Q 353 981 353 1791 
Q 353 2603 747 3093 
Q 1141 3584 1784 3584 
Q 2172 3584 2450 3431 
Q 2728 3278 2906 2969 
L 2906 3500 
L 3481 3500 
L 3481 434 
z
" transform="scale(0.015625)"/>
     </defs>
     <use xlink:href="#DejaVuSans-54"/>
     <use xlink:href="#DejaVuSans-65" x="44.083984"/>
     <use xlink:href="#DejaVuSans-73" x="105.607422"/>
     <use xlink:href="#DejaVuSans-74" x="157.707031"/>
     <use xlink:href="#DejaVuSans-20" x="196.916016"/>
     <use xlink:href="#DejaVuSans-71" x="228.703125"/>
     <use xlink:href="#DejaVuSans-75" x="292.179688"/>
     <use xlink:href="#DejaVuSans-61" x="355.558594"/>
     <use xlink:href="#DejaVuSans-6c" x="416.837891"/>
     <use xlink:href="#DejaVuSans-69" x="444.621094"/>
     <use xlink:href="#DejaVuSans-74" x="472.404297"/>
     <use xlink:href="#DejaVuSans-79" x="511.613281"/>
     <use xlink:href="#DejaVuSans-20" x="570.792969"/>
     <use xlink:href="#DejaVuSans-64" x="602.580078"/>
     <use xlink:href="#DejaVuSans-75" x="666.056641"/>
     <use xlink:href="#DejaVuSans-72" x="729.435547"/>
     <use xlink:href="#DejaVuSans-69" x="770.548828"/>
     <use xlink:href="#DejaVuSans-6e" x="798.332031"/>
     <use xlink:href="#DejaVuSans-67" x="861.710938"/>
     <use xlink:href="#DejaVuSans-20" x="925.1875"/>
     <use xlink:href="#DejaVuSans-74" x="956.974609"/>
     <use xlink:href="#DejaVuSans-72" x="996.183594"/>
     <use xlink:href="#DejaVuSans-61" x="1037.296875"/>
     <use xlink:href="#DejaVuSans-69" x="1098.576172"/>
     <use xlink:href="#DejaVuSans-6e" x="1126.359375"/>
     <use xlink:href="#DejaVuSans-69" x="1189.738281"/>
     <use xlink:href="#DejaVuSans-6e" x="1217.521484"/>
     <use xlink:href="#DejaVuSans-67" x="1280.900391"/>
    </g>
   </g>
   <g id="legend_1">
    <g id="patch_7">
     <path d="M 247.566767 247.158125 
L 304.530517 247.158125 
Q 306.730517 247.158125 306.730517 244.958125 
L 306.730517 132.06875 
Q 306.730517 129.86875 304.530517 129.86875 
L 247.566767 129.86875 
Q 245.366767 129.86875 245.366767 132.06875 
L 245.366767 244.958125 
Q 245.366767 247.158125 247.566767 247.158125 
z
" style="fill: #ffffff; opacity: 0.8; stroke: #cccccc; stroke-linejoin: miter"/>
    </g>
    <g id="text_19">
     <!-- # letters -->
     <g style="fill: #262626" transform="translate(249.766767 143.386875) scale(0.12 -0.12)">
      <use xlink:href="#DejaVuSans-23"/>
      <use xlink:href="#DejaVuSans-20" x="83.789062"/>
      <use xlink:href="#DejaVuSans-6c" x="115.576172"/>
      <use xlink:href="#DejaVuSans-65" x="143.359375"/>
      <use xlink:href="#DejaVuSans-74" x="204.882812"/>
      <use xlink:href="#DejaVuSans-74" x="244.091797"/>
      <use xlink:href="#DejaVuSans-65" x="283.300781"/>
      <use xlink:href="#DejaVuSans-72" x="344.824219"/>
      <use xlink:href="#DejaVuSans-73" x="385.9375"/>
     </g>
    </g>
    <g id="line2d_21">
     <path d="M 253.649892 155.890781 
L 264.649892 155.890781 
L 275.649892 155.890781 
" style="fill: none; stroke: #fbb6bc; stroke-width: 1.5; stroke-linecap: round"/>
    </g>
    <g id="text_20">
     <!-- 5 -->
     <g style="fill: #262626" transform="translate(284.449892 159.740781) scale(0.11 -0.11)">
      <use xlink:href="#DejaVuSans-35"/>
     </g>
    </g>
    <g id="line2d_22">
     <path d="M 253.649892 172.036719 
L 264.649892 172.036719 
L 275.649892 172.036719 
" style="fill: none; stroke: #f883ab; stroke-width: 1.5; stroke-linecap: round"/>
    </g>
    <g id="text_21">
     <!-- 6 -->
     <g style="fill: #262626" transform="translate(284.449892 175.886719) scale(0.11 -0.11)">
      <use xlink:href="#DejaVuSans-36"/>
     </g>
    </g>
    <g id="line2d_23">
     <path d="M 253.649892 188.182656 
L 264.649892 188.182656 
L 275.649892 188.182656 
" style="fill: none; stroke: #e6479b; stroke-width: 1.5; stroke-linecap: round"/>
    </g>
    <g id="text_22">
     <!-- 7 -->
     <g style="fill: #262626" transform="translate(284.449892 192.032656) scale(0.11 -0.11)">
      <use xlink:href="#DejaVuSans-37"/>
     </g>
    </g>
    <g id="line2d_24">
     <path d="M 253.649892 204.328594 
L 264.649892 204.328594 
L 275.649892 204.328594 
" style="fill: none; stroke: #b90d84; stroke-width: 1.5; stroke-linecap: round"/>
    </g>
    <g id="text_23">
     <!-- 8 -->
     <g style="fill: #262626" transform="translate(284.449892 208.178594) scale(0.11 -0.11)">
      <use xlink:href="#DejaVuSans-38"/>
     </g>
    </g>
    <g id="line2d_25">
     <path d="M 253.649892 220.474531 
L 264.649892 220.474531 
L 275.649892 220.474531 
" style="fill: none; stroke: #7f0178; stroke-width: 1.5; stroke-linecap: round"/>
    </g>
    <g id="text_24">
     <!-- 9 -->
     <g style="fill: #262626" transform="translate(284.449892 224.324531) scale(0.11 -0.11)">
      <use xlink:href="#DejaVuSans-39"/>
     </g>
    </g>
    <g id="line2d_26">
     <path d="M 253.649892 236.620469 
L 264.649892 236.620469 
L 275.649892 236.620469 
" style="fill: none; stroke: #49006a; stroke-width: 1.5; stroke-linecap: round"/>
    </g>
    <g id="text_25">
     <!-- 10 -->
     <g style="fill: #262626" transform="translate(284.449892 240.470469) scale(0.11 -0.11)">
      <use xlink:href="#DejaVuSans-31"/>
      <use xlink:href="#DejaVuSans-30" x="63.623047"/>
     </g>
    </g>
   </g>
  </g>
  <g id="axes_2">
   <g id="patch_8">
    <path d="M 369.200517 252.658125 
L 628.121033 252.658125 
L 628.121033 22.318125 
L 369.200517 22.318125 
z
" style="fill: #ffffff"/>
   </g>
   <g id="matplotlib.axis_3">
    <g id="xtick_6">
     <g id="line2d_27">
      <path d="M 408.843849 252.658125 
L 408.843849 22.318125 
" clip-path="url(#p0f16936594)" style="fill: none; stroke: #cccccc; stroke-linecap: round"/>
     </g>
     <g id="text_26">
      <!-- 95 -->
      <g style="fill: #262626" transform="translate(401.845099 270.516406) scale(0.11 -0.11)">
       <use xlink:href="#DejaVuSans-39"/>
       <use xlink:href="#DejaVuSans-35" x="63.623047"/>
      </g>
     </g>
    </g>
    <g id="xtick_7">
     <g id="line2d_28">
      <path d="M 450.345463 252.658125 
L 450.345463 22.318125 
" clip-path="url(#p0f16936594)" style="fill: none; stroke: #cccccc; stroke-linecap: round"/>
     </g>
     <g id="text_27">
      <!-- 96 -->
      <g style="fill: #262626" transform="translate(443.346713 270.516406) scale(0.11 -0.11)">
       <use xlink:href="#DejaVuSans-39"/>
       <use xlink:href="#DejaVuSans-36" x="63.623047"/>
      </g>
     </g>
    </g>
    <g id="xtick_8">
     <g id="line2d_29">
      <path d="M 491.847077 252.658125 
L 491.847077 22.318125 
" clip-path="url(#p0f16936594)" style="fill: none; stroke: #cccccc; stroke-linecap: round"/>
     </g>
     <g id="text_28">
      <!-- 97 -->
      <g style="fill: #262626" transform="translate(484.848327 270.516406) scale(0.11 -0.11)">
       <use xlink:href="#DejaVuSans-39"/>
       <use xlink:href="#DejaVuSans-37" x="63.623047"/>
      </g>
     </g>
    </g>
    <g id="xtick_9">
     <g id="line2d_30">
      <path d="M 533.348691 252.658125 
L 533.348691 22.318125 
" clip-path="url(#p0f16936594)" style="fill: none; stroke: #cccccc; stroke-linecap: round"/>
     </g>
     <g id="text_29">
      <!-- 98 -->
      <g style="fill: #262626" transform="translate(526.349941 270.516406) scale(0.11 -0.11)">
       <use xlink:href="#DejaVuSans-39"/>
       <use xlink:href="#DejaVuSans-38" x="63.623047"/>
      </g>
     </g>
    </g>
    <g id="xtick_10">
     <g id="line2d_31">
      <path d="M 574.850305 252.658125 
L 574.850305 22.318125 
" clip-path="url(#p0f16936594)" style="fill: none; stroke: #cccccc; stroke-linecap: round"/>
     </g>
     <g id="text_30">
      <!-- 99 -->
      <g style="fill: #262626" transform="translate(567.851555 270.516406) scale(0.11 -0.11)">
       <use xlink:href="#DejaVuSans-39"/>
       <use xlink:href="#DejaVuSans-39" x="63.623047"/>
      </g>
     </g>
    </g>
    <g id="xtick_11">
     <g id="line2d_32">
      <path d="M 616.351919 252.658125 
L 616.351919 22.318125 
" clip-path="url(#p0f16936594)" style="fill: none; stroke: #cccccc; stroke-linecap: round"/>
     </g>
     <g id="text_31">
      <!-- 100 -->
      <g style="fill: #262626" transform="translate(605.853794 270.516406) scale(0.11 -0.11)">
       <use xlink:href="#DejaVuSans-31"/>
       <use xlink:href="#DejaVuSans-30" x="63.623047"/>
       <use xlink:href="#DejaVuSans-30" x="127.246094"/>
      </g>
     </g>
    </g>
    <g id="text_32">
     <!-- win rate, % -->
     <g style="fill: #262626" transform="translate(464.675462 285.922187) scale(0.12 -0.12)">
      <use xlink:href="#DejaVuSans-77"/>
      <use xlink:href="#DejaVuSans-69" x="81.787109"/>
      <use xlink:href="#DejaVuSans-6e" x="109.570312"/>
      <use xlink:href="#DejaVuSans-20" x="172.949219"/>
      <use xlink:href="#DejaVuSans-72" x="204.736328"/>
      <use xlink:href="#DejaVuSans-61" x="245.849609"/>
      <use xlink:href="#DejaVuSans-74" x="307.128906"/>
      <use xlink:href="#DejaVuSans-65" x="346.337891"/>
      <use xlink:href="#DejaVuSans-2c" x="407.861328"/>
      <use xlink:href="#DejaVuSans-20" x="439.648438"/>
      <use xlink:href="#DejaVuSans-25" x="471.435547"/>
     </g>
    </g>
   </g>
   <g id="matplotlib.axis_4">
    <g id="ytick_10">
     <g id="line2d_33">
      <path d="M 369.200517 241.876545 
L 628.121033 241.876545 
" clip-path="url(#p0f16936594)" style="fill: none; stroke: #cccccc; stroke-linecap: round"/>
     </g>
     <g id="text_33">
      <!-- 3.0 -->
      <g style="fill: #262626" transform="translate(342.207079 246.055686) scale(0.11 -0.11)">
       <defs>
        <path id="DejaVuSans-33" d="M 2597 2516 
Q 3050 2419 3304 2112 
Q 3559 1806 3559 1356 
Q 3559 666 3084 287 
Q 2609 -91 1734 -91 
Q 1441 -91 1130 -33 
Q 819 25 488 141 
L 488 750 
Q 750 597 1062 519 
Q 1375 441 1716 441 
Q 2309 441 2620 675 
Q 2931 909 2931 1356 
Q 2931 1769 2642 2001 
Q 2353 2234 1838 2234 
L 1294 2234 
L 1294 2753 
L 1863 2753 
Q 2328 2753 2575 2939 
Q 2822 3125 2822 3475 
Q 2822 3834 2567 4026 
Q 2313 4219 1838 4219 
Q 1578 4219 1281 4162 
Q 984 4106 628 3988 
L 628 4550 
Q 988 4650 1302 4700 
Q 1616 4750 1894 4750 
Q 2613 4750 3031 4423 
Q 3450 4097 3450 3541 
Q 3450 3153 3228 2886 
Q 3006 2619 2597 2516 
z
" transform="scale(0.015625)"/>
       </defs>
       <use xlink:href="#DejaVuSans-33"/>
       <use xlink:href="#DejaVuSans-2e" x="63.623047"/>
       <use xlink:href="#DejaVuSans-30" x="95.410156"/>
      </g>
     </g>
    </g>
    <g id="ytick_11">
     <g id="line2d_34">
      <path d="M 369.200517 205.22009 
L 628.121033 205.22009 
" clip-path="url(#p0f16936594)" style="fill: none; stroke: #cccccc; stroke-linecap: round"/>
     </g>
     <g id="text_34">
      <!-- 3.2 -->
      <g style="fill: #262626" transform="translate(342.207079 209.399231) scale(0.11 -0.11)">
       <use xlink:href="#DejaVuSans-33"/>
       <use xlink:href="#DejaVuSans-2e" x="63.623047"/>
       <use xlink:href="#DejaVuSans-32" x="95.410156"/>
      </g>
     </g>
    </g>
    <g id="ytick_12">
     <g id="line2d_35">
      <path d="M 369.200517 168.563635 
L 628.121033 168.563635 
" clip-path="url(#p0f16936594)" style="fill: none; stroke: #cccccc; stroke-linecap: round"/>
     </g>
     <g id="text_35">
      <!-- 3.4 -->
      <g style="fill: #262626" transform="translate(342.207079 172.742775) scale(0.11 -0.11)">
       <use xlink:href="#DejaVuSans-33"/>
       <use xlink:href="#DejaVuSans-2e" x="63.623047"/>
       <use xlink:href="#DejaVuSans-34" x="95.410156"/>
      </g>
     </g>
    </g>
    <g id="ytick_13">
     <g id="line2d_36">
      <path d="M 369.200517 131.90718 
L 628.121033 131.90718 
" clip-path="url(#p0f16936594)" style="fill: none; stroke: #cccccc; stroke-linecap: round"/>
     </g>
     <g id="text_36">
      <!-- 3.6 -->
      <g style="fill: #262626" transform="translate(342.207079 136.08632) scale(0.11 -0.11)">
       <use xlink:href="#DejaVuSans-33"/>
       <use xlink:href="#DejaVuSans-2e" x="63.623047"/>
       <use xlink:href="#DejaVuSans-36" x="95.410156"/>
      </g>
     </g>
    </g>
    <g id="ytick_14">
     <g id="line2d_37">
      <path d="M 369.200517 95.250725 
L 628.121033 95.250725 
" clip-path="url(#p0f16936594)" style="fill: none; stroke: #cccccc; stroke-linecap: round"/>
     </g>
     <g id="text_37">
      <!-- 3.8 -->
      <g style="fill: #262626" transform="translate(342.207079 99.429865) scale(0.11 -0.11)">
       <use xlink:href="#DejaVuSans-33"/>
       <use xlink:href="#DejaVuSans-2e" x="63.623047"/>
       <use xlink:href="#DejaVuSans-38" x="95.410156"/>
      </g>
     </g>
    </g>
    <g id="ytick_15">
     <g id="line2d_38">
      <path d="M 369.200517 58.594269 
L 628.121033 58.594269 
" clip-path="url(#p0f16936594)" style="fill: none; stroke: #cccccc; stroke-linecap: round"/>
     </g>
     <g id="text_38">
      <!-- 4.0 -->
      <g style="fill: #262626" transform="translate(342.207079 62.77341) scale(0.11 -0.11)">
       <use xlink:href="#DejaVuSans-34"/>
       <use xlink:href="#DejaVuSans-2e" x="63.623047"/>
       <use xlink:href="#DejaVuSans-30" x="95.410156"/>
      </g>
     </g>
    </g>
    <g id="text_39">
     <!-- avg. turns -->
     <g style="fill: #262626" transform="translate(335.711454 167.783437) rotate(-90) scale(0.12 -0.12)">
      <defs>
       <path id="DejaVuSans-76" d="M 191 3500 
L 800 3500 
L 1894 563 
L 2988 3500 
L 3597 3500 
L 2284 0 
L 1503 0 
L 191 3500 
z
" transform="scale(0.015625)"/>
      </defs>
      <use xlink:href="#DejaVuSans-61"/>
      <use xlink:href="#DejaVuSans-76" x="61.279297"/>
      <use xlink:href="#DejaVuSans-67" x="120.458984"/>
      <use xlink:href="#DejaVuSans-2e" x="183.935547"/>
      <use xlink:href="#DejaVuSans-20" x="215.722656"/>
      <use xlink:href="#DejaVuSans-74" x="247.509766"/>
      <use xlink:href="#DejaVuSans-75" x="286.71875"/>
      <use xlink:href="#DejaVuSans-72" x="350.097656"/>
      <use xlink:href="#DejaVuSans-6e" x="389.460938"/>
      <use xlink:href="#DejaVuSans-73" x="452.839844"/>
     </g>
    </g>
   </g>
   <g id="PathCollection_1">
    <defs>
     <path id="C0_0_e9327ea6c7" d="M 0 3 
C 0.795609 3 1.55874 2.683901 2.12132 2.12132 
C 2.683901 1.55874 3 0.795609 3 -0 
C 3 -0.795609 2.683901 -1.55874 2.12132 -2.12132 
C 1.55874 -2.683901 0.795609 -3 0 -3 
C -0.795609 -3 -1.55874 -2.683901 -2.12132 -2.12132 
C -2.683901 -1.55874 -3 -0.795609 -3 0 
C -3 0.795609 -2.683901 1.55874 -2.12132 2.12132 
C -1.55874 2.683901 -0.795609 3 0 3 
z
"/>
    </defs>
    <g clip-path="url(#p0f16936594)">
     <use xlink:href="#C0_0_e9327ea6c7" x="380.969631" y="32.788125" style="fill: #fbb6bc; stroke: #fbb6bc"/>
    </g>
    <g clip-path="url(#p0f16936594)">
     <use xlink:href="#C0_0_e9327ea6c7" x="500.869167" y="104.414838" style="fill: #f883ab; stroke: #f883ab"/>
    </g>
    <g clip-path="url(#p0f16936594)">
     <use xlink:href="#C0_0_e9327ea6c7" x="533.569444" y="155.843845" style="fill: #e6479b; stroke: #e6479b"/>
    </g>
    <g clip-path="url(#p0f16936594)">
     <use xlink:href="#C0_0_e9327ea6c7" x="566.112179" y="213.834357" style="fill: #b90d84; stroke: #b90d84"/>
    </g>
    <g clip-path="url(#p0f16936594)">
     <use xlink:href="#C0_0_e9327ea6c7" x="571.103757" y="188.394777" style="fill: #7f0178; stroke: #7f0178"/>
    </g>
    <g clip-path="url(#p0f16936594)">
     <use xlink:href="#C0_0_e9327ea6c7" x="572.589233" y="204.761884" style="fill: #49006a; stroke: #49006a"/>
    </g>
   </g>
   <g id="PathCollection_2">
    <defs>
     <path id="C1_0_9415abe188" d="M 0 3 
C 0.795609 3 1.55874 2.683901 2.12132 2.12132 
C 2.683901 1.55874 3 0.795609 3 -0 
C 3 -0.795609 2.683901 -1.55874 2.12132 -2.12132 
C 1.55874 -2.683901 0.795609 -3 0 -3 
C -0.795609 -3 -1.55874 -2.683901 -2.12132 -2.12132 
C -2.683901 -1.55874 -3 -0.795609 -3 0 
C -3 0.795609 -2.683901 1.55874 -2.12132 2.12132 
C -1.55874 2.683901 -0.795609 3 0 3 
z
"/>
    </defs>
    <g clip-path="url(#p0f16936594)">
     <use xlink:href="#C1_0_9415abe188" x="616.351919" y="142.904116" style="fill: #c8e99b; stroke: #c8e99b"/>
    </g>
    <g clip-path="url(#p0f16936594)">
     <use xlink:href="#C1_0_9415abe188" x="616.351919" y="211.268405" style="fill: #92d183; stroke: #92d183"/>
    </g>
    <g clip-path="url(#p0f16936594)">
     <use xlink:href="#C1_0_9415abe188" x="616.351919" y="239.457219" style="fill: #55b567; stroke: #55b567"/>
    </g>
    <g clip-path="url(#p0f16936594)">
     <use xlink:href="#C1_0_9415abe188" x="616.351919" y="242.188125" style="fill: #2a8d49; stroke: #2a8d49"/>
    </g>
    <g clip-path="url(#p0f16936594)">
     <use xlink:href="#C1_0_9415abe188" x="616.351919" y="241.876545" style="fill: #036b38; stroke: #036b38"/>
    </g>
   </g>
   <g id="line2d_39">
    <path d="M 380.969631 32.788125 
L 500.869167 104.414838 
L 533.569444 155.843845 
L 566.112179 213.834357 
L 571.103757 188.394777 
L 572.589233 204.761884 
" clip-path="url(#p0f16936594)" style="fill: none; stroke-dasharray: 1.5,2.475; stroke-dashoffset: 0; stroke: #f08080; stroke-width: 1.5"/>
   </g>
   <g id="line2d_40">
    <path d="M 616.351919 142.904116 
L 616.351919 211.268405 
L 616.351919 239.457219 
L 616.351919 242.188125 
L 616.351919 241.876545 
" clip-path="url(#p0f16936594)" style="fill: none; stroke-dasharray: 1.5,2.475; stroke-dashoffset: 0; stroke: #7cfc00; stroke-width: 1.5"/>
   </g>
   <g id="patch_9">
    <path d="M 369.200517 252.658125 
L 369.200517 22.318125 
" style="fill: none; stroke: #cccccc; stroke-width: 1.25; stroke-linejoin: miter; stroke-linecap: square"/>
   </g>
   <g id="patch_10">
    <path d="M 628.121033 252.658125 
L 628.121033 22.318125 
" style="fill: none; stroke: #cccccc; stroke-width: 1.25; stroke-linejoin: miter; stroke-linecap: square"/>
   </g>
   <g id="patch_11">
    <path d="M 369.200517 252.658125 
L 628.121033 252.658125 
" style="fill: none; stroke: #cccccc; stroke-width: 1.25; stroke-linejoin: miter; stroke-linecap: square"/>
   </g>
   <g id="patch_12">
    <path d="M 369.200517 22.318125 
L 628.121033 22.318125 
" style="fill: none; stroke: #cccccc; stroke-width: 1.25; stroke-linejoin: miter; stroke-linecap: square"/>
   </g>
   <g id="text_40">
    <!-- 5 -->
    <g style="fill: #262626" transform="translate(390.969631 37.788125) scale(0.12 -0.12)">
     <use xlink:href="#DejaVuSans-35"/>
    </g>
   </g>
   <g id="text_41">
    <!-- 6 -->
    <g style="fill: #262626" transform="translate(510.869167 109.414838) scale(0.12 -0.12)">
     <use xlink:href="#DejaVuSans-36"/>
    </g>
   </g>
   <g id="text_42">
    <!-- 7 -->
    <g style="fill: #262626" transform="translate(543.569444 160.843845) scale(0.12 -0.12)">
     <use xlink:href="#DejaVuSans-37"/>
    </g>
   </g>
   <g id="text_43">
    <!-- 8 -->
    <g style="fill: #262626" transform="translate(576.112179 218.834357) scale(0.12 -0.12)">
     <use xlink:href="#DejaVuSans-38"/>
    </g>
   </g>
   <g id="text_44">
    <!-- 9 -->
    <g style="fill: #262626" transform="translate(581.103757 193.394777) scale(0.12 -0.12)">
     <use xlink:href="#DejaVuSans-39"/>
    </g>
   </g>
   <g id="text_45">
    <!-- 10 -->
    <g style="fill: #262626" transform="translate(582.589233 209.761884) scale(0.12 -0.12)">
     <use xlink:href="#DejaVuSans-31"/>
     <use xlink:href="#DejaVuSans-30" x="63.623047"/>
    </g>
   </g>
   <g id="text_46">
    <!-- 5 -->
    <g style="fill: #262626" transform="translate(601.351919 147.904116) scale(0.12 -0.12)">
     <use xlink:href="#DejaVuSans-35"/>
    </g>
   </g>
   <g id="text_47">
    <!-- 6 -->
    <g style="fill: #262626" transform="translate(601.351919 216.268405) scale(0.12 -0.12)">
     <use xlink:href="#DejaVuSans-36"/>
    </g>
   </g>
   <g id="text_48">
    <!-- 7,8,9 -->
    <g style="fill: #262626" transform="translate(576.351919 246.876545) scale(0.12 -0.12)">
     <use xlink:href="#DejaVuSans-37"/>
     <use xlink:href="#DejaVuSans-2c" x="63.623047"/>
     <use xlink:href="#DejaVuSans-38" x="95.410156"/>
     <use xlink:href="#DejaVuSans-2c" x="159.033203"/>
     <use xlink:href="#DejaVuSans-39" x="190.820312"/>
    </g>
   </g>
   <g id="text_49">
    <!-- Best reached quality -->
    <g style="fill: #262626" transform="translate(436.732337 16.318125) scale(0.12 -0.12)">
     <defs>
      <path id="DejaVuSans-42" d="M 1259 2228 
L 1259 519 
L 2272 519 
Q 2781 519 3026 730 
Q 3272 941 3272 1375 
Q 3272 1813 3026 2020 
Q 2781 2228 2272 2228 
L 1259 2228 
z
M 1259 4147 
L 1259 2741 
L 2194 2741 
Q 2656 2741 2882 2914 
Q 3109 3088 3109 3444 
Q 3109 3797 2882 3972 
Q 2656 4147 2194 4147 
L 1259 4147 
z
M 628 4666 
L 2241 4666 
Q 2963 4666 3353 4366 
Q 3744 4066 3744 3513 
Q 3744 3084 3544 2831 
Q 3344 2578 2956 2516 
Q 3422 2416 3680 2098 
Q 3938 1781 3938 1306 
Q 3938 681 3513 340 
Q 3088 0 2303 0 
L 628 0 
L 628 4666 
z
" transform="scale(0.015625)"/>
      <path id="DejaVuSans-63" d="M 3122 3366 
L 3122 2828 
Q 2878 2963 2633 3030 
Q 2388 3097 2138 3097 
Q 1578 3097 1268 2742 
Q 959 2388 959 1747 
Q 959 1106 1268 751 
Q 1578 397 2138 397 
Q 2388 397 2633 464 
Q 2878 531 3122 666 
L 3122 134 
Q 2881 22 2623 -34 
Q 2366 -91 2075 -91 
Q 1284 -91 818 406 
Q 353 903 353 1747 
Q 353 2603 823 3093 
Q 1294 3584 2113 3584 
Q 2378 3584 2631 3529 
Q 2884 3475 3122 3366 
z
" transform="scale(0.015625)"/>
      <path id="DejaVuSans-68" d="M 3513 2113 
L 3513 0 
L 2938 0 
L 2938 2094 
Q 2938 2591 2744 2837 
Q 2550 3084 2163 3084 
Q 1697 3084 1428 2787 
Q 1159 2491 1159 1978 
L 1159 0 
L 581 0 
L 581 4863 
L 1159 4863 
L 1159 2956 
Q 1366 3272 1645 3428 
Q 1925 3584 2291 3584 
Q 2894 3584 3203 3211 
Q 3513 2838 3513 2113 
z
" transform="scale(0.015625)"/>
     </defs>
     <use xlink:href="#DejaVuSans-42"/>
     <use xlink:href="#DejaVuSans-65" x="68.603516"/>
     <use xlink:href="#DejaVuSans-73" x="130.126953"/>
     <use xlink:href="#DejaVuSans-74" x="182.226562"/>
     <use xlink:href="#DejaVuSans-20" x="221.435547"/>
     <use xlink:href="#DejaVuSans-72" x="253.222656"/>
     <use xlink:href="#DejaVuSans-65" x="292.085938"/>
     <use xlink:href="#DejaVuSans-61" x="353.609375"/>
     <use xlink:href="#DejaVuSans-63" x="414.888672"/>
     <use xlink:href="#DejaVuSans-68" x="469.869141"/>
     <use xlink:href="#DejaVuSans-65" x="533.248047"/>
     <use xlink:href="#DejaVuSans-64" x="594.771484"/>
     <use xlink:href="#DejaVuSans-20" x="658.248047"/>
     <use xlink:href="#DejaVuSans-71" x="690.035156"/>
     <use xlink:href="#DejaVuSans-75" x="753.511719"/>
     <use xlink:href="#DejaVuSans-61" x="816.890625"/>
     <use xlink:href="#DejaVuSans-6c" x="878.169922"/>
     <use xlink:href="#DejaVuSans-69" x="905.953125"/>
     <use xlink:href="#DejaVuSans-74" x="933.736328"/>
     <use xlink:href="#DejaVuSans-79" x="972.945312"/>
    </g>
   </g>
   <g id="legend_2">
    <g id="patch_13">
     <path d="M 376.900517 247.158125 
L 477.576298 247.158125 
Q 479.776298 247.158125 479.776298 244.958125 
L 479.776298 196.6525 
Q 479.776298 194.4525 477.576298 194.4525 
L 376.900517 194.4525 
Q 374.700517 194.4525 374.700517 196.6525 
L 374.700517 244.958125 
Q 374.700517 247.158125 376.900517 247.158125 
z
" style="fill: #ffffff; opacity: 0.8; stroke: #cccccc; stroke-linejoin: miter"/>
    </g>
    <g id="text_50">
     <!-- Method -->
     <g style="fill: #262626" transform="translate(404.734657 207.970625) scale(0.12 -0.12)">
      <defs>
       <path id="DejaVuSans-4d" d="M 628 4666 
L 1569 4666 
L 2759 1491 
L 3956 4666 
L 4897 4666 
L 4897 0 
L 4281 0 
L 4281 4097 
L 3078 897 
L 2444 897 
L 1241 4097 
L 1241 0 
L 628 0 
L 628 4666 
z
" transform="scale(0.015625)"/>
      </defs>
      <use xlink:href="#DejaVuSans-4d"/>
      <use xlink:href="#DejaVuSans-65" x="86.279297"/>
      <use xlink:href="#DejaVuSans-74" x="147.802734"/>
      <use xlink:href="#DejaVuSans-68" x="187.011719"/>
      <use xlink:href="#DejaVuSans-6f" x="250.390625"/>
      <use xlink:href="#DejaVuSans-64" x="311.572266"/>
     </g>
    </g>
    <g id="PathCollection_3">
     <path d="M 390.100517 224.437031 
C 390.896126 224.437031 391.659256 224.120932 392.221837 223.558352 
C 392.784418 222.995771 393.100517 222.232641 393.100517 221.437031 
C 393.100517 220.641422 392.784418 219.878292 392.221837 219.315711 
C 391.659256 218.75313 390.896126 218.437031 390.100517 218.437031 
C 389.304907 218.437031 388.541777 218.75313 387.979196 219.315711 
C 387.416615 219.878292 387.100517 220.641422 387.100517 221.437031 
C 387.100517 222.232641 387.416615 222.995771 387.979196 223.558352 
C 388.541777 224.120932 389.304907 224.437031 390.100517 224.437031 
z
" style="fill: #fbb6bc; stroke: #fbb6bc"/>
    </g>
    <g id="text_51">
     <!-- RL -->
     <g style="fill: #262626" transform="translate(409.900517 224.324531) scale(0.11 -0.11)">
      <defs>
       <path id="DejaVuSans-52" d="M 2841 2188 
Q 3044 2119 3236 1894 
Q 3428 1669 3622 1275 
L 4263 0 
L 3584 0 
L 2988 1197 
Q 2756 1666 2539 1819 
Q 2322 1972 1947 1972 
L 1259 1972 
L 1259 0 
L 628 0 
L 628 4666 
L 2053 4666 
Q 2853 4666 3247 4331 
Q 3641 3997 3641 3322 
Q 3641 2881 3436 2590 
Q 3231 2300 2841 2188 
z
M 1259 4147 
L 1259 2491 
L 2053 2491 
Q 2509 2491 2742 2702 
Q 2975 2913 2975 3322 
Q 2975 3731 2742 3939 
Q 2509 4147 2053 4147 
L 1259 4147 
z
" transform="scale(0.015625)"/>
       <path id="DejaVuSans-4c" d="M 628 4666 
L 1259 4666 
L 1259 531 
L 3531 531 
L 3531 0 
L 628 0 
L 628 4666 
z
" transform="scale(0.015625)"/>
      </defs>
      <use xlink:href="#DejaVuSans-52"/>
      <use xlink:href="#DejaVuSans-4c" x="69.482422"/>
     </g>
    </g>
    <g id="PathCollection_4">
     <path d="M 390.100517 240.582969 
C 390.896126 240.582969 391.659256 240.26687 392.221837 239.704289 
C 392.784418 239.141708 393.100517 238.378578 393.100517 237.582969 
C 393.100517 236.787359 392.784418 236.024229 392.221837 235.461648 
C 391.659256 234.899068 390.896126 234.582969 390.100517 234.582969 
C 389.304907 234.582969 388.541777 234.899068 387.979196 235.461648 
C 387.416615 236.024229 387.100517 236.787359 387.100517 237.582969 
C 387.100517 238.378578 387.416615 239.141708 387.979196 239.704289 
C 388.541777 240.26687 389.304907 240.582969 390.100517 240.582969 
z
" style="fill: #c8e99b; stroke: #c8e99b"/>
    </g>
    <g id="text_52">
     <!-- MaxEntropy -->
     <g style="fill: #262626" transform="translate(409.900517 240.470469) scale(0.11 -0.11)">
      <defs>
       <path id="DejaVuSans-78" d="M 3513 3500 
L 2247 1797 
L 3578 0 
L 2900 0 
L 1881 1375 
L 863 0 
L 184 0 
L 1544 1831 
L 300 3500 
L 978 3500 
L 1906 2253 
L 2834 3500 
L 3513 3500 
z
" transform="scale(0.015625)"/>
       <path id="DejaVuSans-45" d="M 628 4666 
L 3578 4666 
L 3578 4134 
L 1259 4134 
L 1259 2753 
L 3481 2753 
L 3481 2222 
L 1259 2222 
L 1259 531 
L 3634 531 
L 3634 0 
L 628 0 
L 628 4666 
z
" transform="scale(0.015625)"/>
      </defs>
      <use xlink:href="#DejaVuSans-4d"/>
      <use xlink:href="#DejaVuSans-61" x="86.279297"/>
      <use xlink:href="#DejaVuSans-78" x="147.558594"/>
      <use xlink:href="#DejaVuSans-45" x="206.738281"/>
      <use xlink:href="#DejaVuSans-6e" x="269.921875"/>
      <use xlink:href="#DejaVuSans-74" x="333.300781"/>
      <use xlink:href="#DejaVuSans-72" x="372.509766"/>
      <use xlink:href="#DejaVuSans-6f" x="411.373047"/>
      <use xlink:href="#DejaVuSans-70" x="472.554688"/>
      <use xlink:href="#DejaVuSans-79" x="536.03125"/>
     </g>
    </g>
   </g>
  </g>
 </g>
 <defs>
  <clipPath id="pae3f9b1b0e">
   <rect x="53.31" y="22.318125" width="258.920517" height="230.34"/>
  </clipPath>
  <clipPath id="p0f16936594">
   <rect x="369.200517" y="22.318125" width="258.920517" height="230.34"/>
  </clipPath>
 </defs>
</svg>
